<mxfile host="Electron" agent="Mozilla/5.0 (Windows NT 10.0; Win64; x64) AppleWebKit/537.36 (KHTML, like Gecko) draw.io/27.0.2 Chrome/134.0.6998.205 Electron/35.3.0 Safari/537.36" version="27.0.2" pages="4">
  <diagram id="FPhwJaROizF7ONbcPTmd" name="用例图2">
    <mxGraphModel dx="1239" dy="40" grid="1" gridSize="10" guides="1" tooltips="1" connect="1" arrows="1" fold="1" page="1" pageScale="1" pageWidth="827" pageHeight="1169" math="0" shadow="0">
      <root>
        <mxCell id="0" />
        <mxCell id="1" parent="0" />
        <mxCell id="dEmUwoVIQgHfNwz5-q9_-50" style="edgeStyle=none;shape=connector;rounded=0;orthogonalLoop=1;jettySize=auto;html=1;exitX=0.5;exitY=1;exitDx=0;exitDy=0;entryX=0.5;entryY=0;entryDx=0;entryDy=0;strokeColor=default;align=center;verticalAlign=middle;fontFamily=Helvetica;fontSize=11;fontColor=default;labelBackgroundColor=default;startFill=0;endArrow=none;" parent="1" source="dEmUwoVIQgHfNwz5-q9_-54" target="dEmUwoVIQgHfNwz5-q9_-81" edge="1">
          <mxGeometry relative="1" as="geometry" />
        </mxCell>
        <mxCell id="dEmUwoVIQgHfNwz5-q9_-51" style="edgeStyle=none;shape=connector;rounded=0;orthogonalLoop=1;jettySize=auto;html=1;exitX=0.5;exitY=1;exitDx=0;exitDy=0;entryX=0.5;entryY=0;entryDx=0;entryDy=0;strokeColor=default;align=center;verticalAlign=middle;fontFamily=Helvetica;fontSize=11;fontColor=default;labelBackgroundColor=default;startFill=0;endArrow=none;" parent="1" source="dEmUwoVIQgHfNwz5-q9_-54" target="dEmUwoVIQgHfNwz5-q9_-89" edge="1">
          <mxGeometry relative="1" as="geometry" />
        </mxCell>
        <mxCell id="dEmUwoVIQgHfNwz5-q9_-52" style="edgeStyle=none;shape=connector;rounded=0;orthogonalLoop=1;jettySize=auto;html=1;exitX=0.5;exitY=1;exitDx=0;exitDy=0;entryX=0.5;entryY=0;entryDx=0;entryDy=0;strokeColor=default;align=center;verticalAlign=middle;fontFamily=Helvetica;fontSize=11;fontColor=default;labelBackgroundColor=default;startFill=0;endArrow=none;" parent="1" source="dEmUwoVIQgHfNwz5-q9_-89" target="dEmUwoVIQgHfNwz5-q9_-70" edge="1">
          <mxGeometry relative="1" as="geometry" />
        </mxCell>
        <mxCell id="dEmUwoVIQgHfNwz5-q9_-53" style="edgeStyle=none;shape=connector;rounded=0;orthogonalLoop=1;jettySize=auto;html=1;exitX=0.5;exitY=1;exitDx=0;exitDy=0;entryX=0.25;entryY=0;entryDx=0;entryDy=0;strokeColor=default;align=center;verticalAlign=middle;fontFamily=Helvetica;fontSize=11;fontColor=default;labelBackgroundColor=default;startFill=0;endArrow=none;" parent="1" source="dEmUwoVIQgHfNwz5-q9_-89" target="dEmUwoVIQgHfNwz5-q9_-69" edge="1">
          <mxGeometry relative="1" as="geometry" />
        </mxCell>
        <mxCell id="Ajnwfm0adb8bjxYiWsa1-10" style="edgeStyle=none;shape=connector;rounded=0;orthogonalLoop=1;jettySize=auto;html=1;exitX=0.5;exitY=1;exitDx=0;exitDy=0;entryX=0.5;entryY=0;entryDx=0;entryDy=0;strokeColor=default;align=center;verticalAlign=middle;fontFamily=Helvetica;fontSize=11;fontColor=default;labelBackgroundColor=default;startFill=0;endArrow=none;" parent="1" source="dEmUwoVIQgHfNwz5-q9_-54" target="dEmUwoVIQgHfNwz5-q9_-104" edge="1">
          <mxGeometry relative="1" as="geometry" />
        </mxCell>
        <mxCell id="Ajnwfm0adb8bjxYiWsa1-11" style="edgeStyle=none;shape=connector;rounded=0;orthogonalLoop=1;jettySize=auto;html=1;exitX=0.5;exitY=1;exitDx=0;exitDy=0;entryX=0.5;entryY=0;entryDx=0;entryDy=0;strokeColor=default;align=center;verticalAlign=middle;fontFamily=Helvetica;fontSize=11;fontColor=default;labelBackgroundColor=default;startFill=0;endArrow=none;" parent="1" source="dEmUwoVIQgHfNwz5-q9_-54" target="KxoiUY1CaRy05x_mbYZg-3" edge="1">
          <mxGeometry relative="1" as="geometry" />
        </mxCell>
        <mxCell id="Ajnwfm0adb8bjxYiWsa1-12" style="edgeStyle=none;shape=connector;rounded=0;orthogonalLoop=1;jettySize=auto;html=1;exitX=0.5;exitY=1;exitDx=0;exitDy=0;entryX=0.5;entryY=0;entryDx=0;entryDy=0;strokeColor=default;align=center;verticalAlign=middle;fontFamily=Helvetica;fontSize=11;fontColor=default;labelBackgroundColor=default;startFill=0;endArrow=none;" parent="1" source="dEmUwoVIQgHfNwz5-q9_-54" target="dEmUwoVIQgHfNwz5-q9_-105" edge="1">
          <mxGeometry relative="1" as="geometry" />
        </mxCell>
        <mxCell id="Ajnwfm0adb8bjxYiWsa1-16" style="edgeStyle=none;shape=connector;rounded=0;orthogonalLoop=1;jettySize=auto;html=1;exitX=0.5;exitY=1;exitDx=0;exitDy=0;entryX=0.5;entryY=0;entryDx=0;entryDy=0;strokeColor=default;align=center;verticalAlign=middle;fontFamily=Helvetica;fontSize=11;fontColor=default;labelBackgroundColor=default;startFill=0;endArrow=none;" parent="1" source="dEmUwoVIQgHfNwz5-q9_-54" target="dEmUwoVIQgHfNwz5-q9_-115" edge="1">
          <mxGeometry relative="1" as="geometry" />
        </mxCell>
        <mxCell id="KxoiUY1CaRy05x_mbYZg-13" style="rounded=0;orthogonalLoop=1;jettySize=auto;html=1;entryX=0.5;entryY=0;entryDx=0;entryDy=0;exitX=0.5;exitY=1;exitDx=0;exitDy=0;" edge="1" parent="1" source="dEmUwoVIQgHfNwz5-q9_-54" target="KxoiUY1CaRy05x_mbYZg-11">
          <mxGeometry relative="1" as="geometry" />
        </mxCell>
        <mxCell id="dEmUwoVIQgHfNwz5-q9_-54" value="&lt;span style=&quot;font-size: 16px;&quot;&gt;医院陪诊服务系统后台&lt;/span&gt;" style="rounded=0;whiteSpace=wrap;html=1;" parent="1" vertex="1">
          <mxGeometry x="1790" y="1450" width="220" height="50" as="geometry" />
        </mxCell>
        <mxCell id="dEmUwoVIQgHfNwz5-q9_-55" style="edgeStyle=none;html=1;exitX=0.5;exitY=0;exitDx=0;exitDy=0;entryX=0.5;entryY=1;entryDx=0;entryDy=0;fontSize=16;endArrow=none;endFill=0;" parent="1" source="dEmUwoVIQgHfNwz5-q9_-56" target="dEmUwoVIQgHfNwz5-q9_-73" edge="1">
          <mxGeometry relative="1" as="geometry" />
        </mxCell>
        <mxCell id="dEmUwoVIQgHfNwz5-q9_-56" value="&lt;font size=&quot;3&quot;&gt;排&lt;/font&gt;&lt;div&gt;&lt;font size=&quot;3&quot;&gt;班&lt;/font&gt;&lt;/div&gt;" style="rounded=0;whiteSpace=wrap;html=1;" parent="1" vertex="1">
          <mxGeometry x="1660" y="1720" width="50" height="240" as="geometry" />
        </mxCell>
        <mxCell id="dEmUwoVIQgHfNwz5-q9_-57" style="edgeStyle=none;html=1;exitX=0.5;exitY=0;exitDx=0;exitDy=0;entryX=0.5;entryY=1;entryDx=0;entryDy=0;fontSize=16;endArrow=none;endFill=0;" parent="1" source="dEmUwoVIQgHfNwz5-q9_-73" target="dEmUwoVIQgHfNwz5-q9_-54" edge="1">
          <mxGeometry relative="1" as="geometry" />
        </mxCell>
        <mxCell id="dEmUwoVIQgHfNwz5-q9_-58" value="&lt;span style=&quot;font-size: 16px;&quot;&gt;陪&lt;/span&gt;&lt;div&gt;&lt;span style=&quot;font-size: 16px;&quot;&gt;诊&lt;/span&gt;&lt;/div&gt;&lt;div&gt;&lt;span style=&quot;font-size: 16px;&quot;&gt;人&lt;/span&gt;&lt;/div&gt;&lt;div&gt;&lt;span style=&quot;font-size: 16px;&quot;&gt;档&lt;/span&gt;&lt;/div&gt;&lt;div&gt;&lt;span style=&quot;font-size: 16px;&quot;&gt;案&lt;/span&gt;&lt;/div&gt;" style="rounded=0;whiteSpace=wrap;html=1;" parent="1" vertex="1">
          <mxGeometry x="1590" y="1720" width="50" height="240" as="geometry" />
        </mxCell>
        <mxCell id="dEmUwoVIQgHfNwz5-q9_-61" style="edgeStyle=none;html=1;exitX=0.5;exitY=0;exitDx=0;exitDy=0;fontSize=16;endArrow=none;endFill=0;entryX=0.5;entryY=1;entryDx=0;entryDy=0;" parent="1" source="dEmUwoVIQgHfNwz5-q9_-62" target="dEmUwoVIQgHfNwz5-q9_-105" edge="1">
          <mxGeometry relative="1" as="geometry">
            <mxPoint x="2025" y="1480" as="targetPoint" />
          </mxGeometry>
        </mxCell>
        <mxCell id="dEmUwoVIQgHfNwz5-q9_-62" value="&lt;font size=&quot;3&quot;&gt;订&lt;/font&gt;&lt;div&gt;&lt;font size=&quot;3&quot;&gt;单&lt;/font&gt;&lt;/div&gt;&lt;div&gt;&lt;font size=&quot;3&quot;&gt;状&lt;/font&gt;&lt;/div&gt;&lt;div&gt;&lt;font size=&quot;3&quot;&gt;态&lt;/font&gt;&lt;/div&gt;&lt;div&gt;&lt;font size=&quot;3&quot;&gt;追&lt;/font&gt;&lt;/div&gt;&lt;div&gt;&lt;font size=&quot;3&quot;&gt;踪&lt;/font&gt;&lt;/div&gt;" style="rounded=0;whiteSpace=wrap;html=1;" parent="1" vertex="1">
          <mxGeometry x="2060" y="1720" width="50" height="240" as="geometry" />
        </mxCell>
        <mxCell id="dEmUwoVIQgHfNwz5-q9_-63" style="edgeStyle=none;html=1;exitX=0.5;exitY=0;exitDx=0;exitDy=0;fontSize=16;endArrow=none;endFill=0;entryX=0.5;entryY=1;entryDx=0;entryDy=0;" parent="1" source="dEmUwoVIQgHfNwz5-q9_-64" target="dEmUwoVIQgHfNwz5-q9_-105" edge="1">
          <mxGeometry relative="1" as="geometry">
            <mxPoint x="2025" y="1480" as="targetPoint" />
          </mxGeometry>
        </mxCell>
        <mxCell id="dEmUwoVIQgHfNwz5-q9_-64" value="&lt;font size=&quot;3&quot;&gt;服&lt;/font&gt;&lt;div&gt;&lt;font size=&quot;3&quot;&gt;务&lt;/font&gt;&lt;/div&gt;&lt;div&gt;&lt;font size=&quot;3&quot;&gt;过&lt;/font&gt;&lt;/div&gt;&lt;div&gt;&lt;font size=&quot;3&quot;&gt;程&lt;/font&gt;&lt;/div&gt;&lt;div&gt;&lt;font size=&quot;3&quot;&gt;记&lt;/font&gt;&lt;/div&gt;&lt;div&gt;&lt;font size=&quot;3&quot;&gt;录&lt;/font&gt;&lt;/div&gt;" style="rounded=0;whiteSpace=wrap;html=1;" parent="1" vertex="1">
          <mxGeometry x="2135" y="1720" width="50" height="240" as="geometry" />
        </mxCell>
        <mxCell id="dEmUwoVIQgHfNwz5-q9_-65" style="edgeStyle=none;html=1;exitX=0.5;exitY=0;exitDx=0;exitDy=0;entryX=0.5;entryY=1;entryDx=0;entryDy=0;fontSize=16;endArrow=none;endFill=0;" parent="1" source="dEmUwoVIQgHfNwz5-q9_-66" target="dEmUwoVIQgHfNwz5-q9_-81" edge="1">
          <mxGeometry relative="1" as="geometry" />
        </mxCell>
        <mxCell id="dEmUwoVIQgHfNwz5-q9_-66" value="&lt;span style=&quot;font-size: 16px;&quot;&gt;客&lt;/span&gt;&lt;div&gt;&lt;span style=&quot;font-size: 16px;&quot;&gt;户&lt;/span&gt;&lt;/div&gt;&lt;div&gt;&lt;span style=&quot;font-size: 16px;&quot;&gt;回&lt;/span&gt;&lt;/div&gt;&lt;div&gt;&lt;span style=&quot;font-size: 16px;&quot;&gt;访&lt;/span&gt;&lt;/div&gt;" style="rounded=0;whiteSpace=wrap;html=1;" parent="1" vertex="1">
          <mxGeometry x="2270" y="1720" width="50" height="240" as="geometry" />
        </mxCell>
        <mxCell id="dEmUwoVIQgHfNwz5-q9_-69" value="&lt;font size=&quot;3&quot;&gt;科&lt;/font&gt;&lt;div&gt;&lt;font size=&quot;3&quot;&gt;室&lt;/font&gt;&lt;/div&gt;&lt;div&gt;&lt;font size=&quot;3&quot;&gt;信&lt;/font&gt;&lt;/div&gt;&lt;div&gt;&lt;font size=&quot;3&quot;&gt;息&lt;/font&gt;&lt;/div&gt;" style="rounded=0;whiteSpace=wrap;html=1;" parent="1" vertex="1">
          <mxGeometry x="1790" y="1720" width="50" height="240" as="geometry" />
        </mxCell>
        <mxCell id="dEmUwoVIQgHfNwz5-q9_-70" value="&lt;font size=&quot;3&quot;&gt;医&lt;/font&gt;&lt;div&gt;&lt;font size=&quot;3&quot;&gt;院&lt;/font&gt;&lt;/div&gt;&lt;div&gt;&lt;font size=&quot;3&quot;&gt;信&lt;/font&gt;&lt;/div&gt;&lt;div&gt;&lt;font size=&quot;3&quot;&gt;息&lt;/font&gt;&lt;/div&gt;" style="rounded=0;whiteSpace=wrap;html=1;" parent="1" vertex="1">
          <mxGeometry x="1730" y="1720" width="50" height="240" as="geometry" />
        </mxCell>
        <mxCell id="dEmUwoVIQgHfNwz5-q9_-71" value="" style="edgeStyle=none;html=1;exitX=0.5;exitY=0;exitDx=0;exitDy=0;entryX=0.5;entryY=1;entryDx=0;entryDy=0;fontSize=16;endArrow=none;endFill=0;" parent="1" source="dEmUwoVIQgHfNwz5-q9_-58" target="dEmUwoVIQgHfNwz5-q9_-73" edge="1">
          <mxGeometry relative="1" as="geometry">
            <mxPoint x="1590" y="1720" as="sourcePoint" />
            <mxPoint x="1835" y="1480" as="targetPoint" />
          </mxGeometry>
        </mxCell>
        <mxCell id="dEmUwoVIQgHfNwz5-q9_-73" value="&lt;span style=&quot;font-size: 16px;&quot;&gt;陪诊团队&lt;/span&gt;" style="rounded=0;whiteSpace=wrap;html=1;" parent="1" vertex="1">
          <mxGeometry x="1590" y="1610" width="120" height="50" as="geometry" />
        </mxCell>
        <mxCell id="dEmUwoVIQgHfNwz5-q9_-74" value="&lt;font size=&quot;3&quot;&gt;订&lt;/font&gt;&lt;div&gt;&lt;font size=&quot;3&quot;&gt;单&lt;/font&gt;&lt;/div&gt;&lt;div&gt;&lt;font size=&quot;3&quot;&gt;查&lt;/font&gt;&lt;/div&gt;&lt;div&gt;&lt;font size=&quot;3&quot;&gt;询&lt;/font&gt;&lt;/div&gt;" style="rounded=0;whiteSpace=wrap;html=1;" parent="1" vertex="1">
          <mxGeometry x="1985" y="1720" width="50" height="240" as="geometry" />
        </mxCell>
        <mxCell id="dEmUwoVIQgHfNwz5-q9_-75" value="" style="endArrow=none;html=1;rounded=0;exitX=0.5;exitY=1;exitDx=0;exitDy=0;entryX=0.5;entryY=0;entryDx=0;entryDy=0;startFill=0;" parent="1" source="dEmUwoVIQgHfNwz5-q9_-105" target="dEmUwoVIQgHfNwz5-q9_-74" edge="1">
          <mxGeometry width="50" height="50" relative="1" as="geometry">
            <mxPoint x="1865" y="1740" as="sourcePoint" />
            <mxPoint x="1915" y="1690" as="targetPoint" />
          </mxGeometry>
        </mxCell>
        <mxCell id="dEmUwoVIQgHfNwz5-q9_-78" style="edgeStyle=none;shape=connector;rounded=0;orthogonalLoop=1;jettySize=auto;html=1;exitX=0.5;exitY=1;exitDx=0;exitDy=0;entryX=0.5;entryY=0;entryDx=0;entryDy=0;strokeColor=default;align=center;verticalAlign=middle;fontFamily=Helvetica;fontSize=11;fontColor=default;labelBackgroundColor=default;startFill=0;endArrow=none;" parent="1" source="dEmUwoVIQgHfNwz5-q9_-81" target="dEmUwoVIQgHfNwz5-q9_-93" edge="1">
          <mxGeometry relative="1" as="geometry" />
        </mxCell>
        <mxCell id="dEmUwoVIQgHfNwz5-q9_-81" value="&lt;font style=&quot;font-size: 16px;&quot;&gt;投诉反馈&lt;/font&gt;" style="rounded=0;whiteSpace=wrap;html=1;" parent="1" vertex="1">
          <mxGeometry x="2210" y="1610" width="120" height="50" as="geometry" />
        </mxCell>
        <mxCell id="KxoiUY1CaRy05x_mbYZg-7" value="" style="edgeStyle=orthogonalEdgeStyle;rounded=0;orthogonalLoop=1;jettySize=auto;html=1;" edge="1" parent="1" source="dEmUwoVIQgHfNwz5-q9_-83">
          <mxGeometry relative="1" as="geometry">
            <mxPoint x="2290" y="1640" as="targetPoint" />
          </mxGeometry>
        </mxCell>
        <mxCell id="dEmUwoVIQgHfNwz5-q9_-84" value="&lt;div&gt;&lt;font size=&quot;3&quot;&gt;医&lt;/font&gt;&lt;/div&gt;&lt;div&gt;&lt;font size=&quot;3&quot;&gt;生&lt;/font&gt;&lt;/div&gt;&lt;div&gt;&lt;font size=&quot;3&quot;&gt;信&lt;/font&gt;&lt;/div&gt;&lt;div&gt;&lt;font size=&quot;3&quot;&gt;息&lt;/font&gt;&lt;/div&gt;" style="rounded=0;whiteSpace=wrap;html=1;" parent="1" vertex="1">
          <mxGeometry x="1850" y="1720" width="50" height="240" as="geometry" />
        </mxCell>
        <mxCell id="dEmUwoVIQgHfNwz5-q9_-85" value="&lt;font size=&quot;3&quot;&gt;医&lt;/font&gt;&lt;div&gt;&lt;font size=&quot;3&quot;&gt;院&lt;/font&gt;&lt;/div&gt;&lt;div&gt;&lt;font size=&quot;3&quot;&gt;排&lt;/font&gt;&lt;/div&gt;&lt;div&gt;&lt;font size=&quot;3&quot;&gt;班&lt;/font&gt;&lt;/div&gt;" style="rounded=0;whiteSpace=wrap;html=1;" parent="1" vertex="1">
          <mxGeometry x="1910" y="1720" width="50" height="240" as="geometry" />
        </mxCell>
        <mxCell id="dEmUwoVIQgHfNwz5-q9_-86" style="edgeStyle=none;shape=connector;rounded=0;orthogonalLoop=1;jettySize=auto;html=1;exitX=0.5;exitY=1;exitDx=0;exitDy=0;entryX=0.5;entryY=0;entryDx=0;entryDy=0;strokeColor=default;align=center;verticalAlign=middle;fontFamily=Helvetica;fontSize=11;fontColor=default;labelBackgroundColor=default;startFill=0;endArrow=none;" parent="1" source="dEmUwoVIQgHfNwz5-q9_-89" target="dEmUwoVIQgHfNwz5-q9_-84" edge="1">
          <mxGeometry relative="1" as="geometry" />
        </mxCell>
        <mxCell id="dEmUwoVIQgHfNwz5-q9_-87" style="edgeStyle=none;shape=connector;rounded=0;orthogonalLoop=1;jettySize=auto;html=1;exitX=0.5;exitY=1;exitDx=0;exitDy=0;entryX=0.5;entryY=0;entryDx=0;entryDy=0;strokeColor=default;align=center;verticalAlign=middle;fontFamily=Helvetica;fontSize=11;fontColor=default;labelBackgroundColor=default;startFill=0;endArrow=none;" parent="1" source="dEmUwoVIQgHfNwz5-q9_-89" target="dEmUwoVIQgHfNwz5-q9_-85" edge="1">
          <mxGeometry relative="1" as="geometry" />
        </mxCell>
        <mxCell id="dEmUwoVIQgHfNwz5-q9_-89" value="&lt;span style=&quot;font-size: 16px;&quot;&gt;医院管理&lt;/span&gt;" style="rounded=0;whiteSpace=wrap;html=1;" parent="1" vertex="1">
          <mxGeometry x="1780" y="1610" width="120" height="50" as="geometry" />
        </mxCell>
        <mxCell id="dEmUwoVIQgHfNwz5-q9_-93" value="&lt;font size=&quot;3&quot;&gt;投&lt;/font&gt;&lt;div&gt;&lt;font size=&quot;3&quot;&gt;诉&lt;/font&gt;&lt;br&gt;&lt;div&gt;&lt;font size=&quot;3&quot;&gt;反&lt;/font&gt;&lt;/div&gt;&lt;div&gt;&lt;font size=&quot;3&quot;&gt;馈&lt;/font&gt;&lt;/div&gt;&lt;/div&gt;" style="rounded=0;whiteSpace=wrap;html=1;" parent="1" vertex="1">
          <mxGeometry x="2210" y="1720" width="50" height="240" as="geometry" />
        </mxCell>
        <mxCell id="Ajnwfm0adb8bjxYiWsa1-2" style="edgeStyle=none;shape=connector;rounded=0;orthogonalLoop=1;jettySize=auto;html=1;exitX=0.5;exitY=1;exitDx=0;exitDy=0;entryX=0.5;entryY=0;entryDx=0;entryDy=0;strokeColor=default;align=center;verticalAlign=middle;fontFamily=Helvetica;fontSize=11;fontColor=default;labelBackgroundColor=default;startFill=0;endArrow=none;" parent="1" source="dEmUwoVIQgHfNwz5-q9_-99" target="dEmUwoVIQgHfNwz5-q9_-100" edge="1">
          <mxGeometry relative="1" as="geometry" />
        </mxCell>
        <mxCell id="dEmUwoVIQgHfNwz5-q9_-99" value="&lt;span style=&quot;font-size: 16px;&quot;&gt;用户管理&lt;/span&gt;" style="rounded=0;whiteSpace=wrap;html=1;" parent="1" vertex="1">
          <mxGeometry x="1310" y="1610" width="120" height="50" as="geometry" />
        </mxCell>
        <mxCell id="dEmUwoVIQgHfNwz5-q9_-100" value="&lt;span style=&quot;font-size: 16px;&quot;&gt;用&lt;/span&gt;&lt;div&gt;&lt;span style=&quot;font-size: 16px;&quot;&gt;户&lt;/span&gt;&lt;/div&gt;&lt;div&gt;&lt;span style=&quot;font-size: 16px;&quot;&gt;列&lt;/span&gt;&lt;/div&gt;&lt;div&gt;&lt;span style=&quot;font-size: 16px;&quot;&gt;表&lt;/span&gt;&lt;/div&gt;" style="rounded=0;whiteSpace=wrap;html=1;" parent="1" vertex="1">
          <mxGeometry x="1345" y="1720" width="50" height="240" as="geometry" />
        </mxCell>
        <mxCell id="dEmUwoVIQgHfNwz5-q9_-102" value="&lt;span style=&quot;font-size: 16px;&quot;&gt;就&lt;/span&gt;&lt;div&gt;&lt;span style=&quot;font-size: 16px;&quot;&gt;诊&lt;/span&gt;&lt;/div&gt;&lt;div&gt;&lt;span style=&quot;font-size: 16px;&quot;&gt;记&lt;/span&gt;&lt;/div&gt;&lt;div&gt;&lt;span style=&quot;font-size: 16px;&quot;&gt;录&lt;/span&gt;&lt;/div&gt;" style="rounded=0;whiteSpace=wrap;html=1;" parent="1" vertex="1">
          <mxGeometry x="1510" y="1720" width="50" height="240" as="geometry" />
        </mxCell>
        <mxCell id="dEmUwoVIQgHfNwz5-q9_-103" value="&lt;span style=&quot;font-size: 16px;&quot;&gt;患&lt;/span&gt;&lt;div&gt;&lt;span style=&quot;font-size: 16px;&quot;&gt;者&lt;/span&gt;&lt;br&gt;&lt;div&gt;&lt;span style=&quot;font-size: 16px;&quot;&gt;档&lt;/span&gt;&lt;/div&gt;&lt;div&gt;&lt;span style=&quot;font-size: 16px;&quot;&gt;案&lt;/span&gt;&lt;/div&gt;&lt;/div&gt;" style="rounded=0;whiteSpace=wrap;html=1;" parent="1" vertex="1">
          <mxGeometry x="1450" y="1720" width="50" height="240" as="geometry" />
        </mxCell>
        <mxCell id="Ajnwfm0adb8bjxYiWsa1-4" style="edgeStyle=none;shape=connector;rounded=0;orthogonalLoop=1;jettySize=auto;html=1;exitX=0.5;exitY=1;exitDx=0;exitDy=0;entryX=0.5;entryY=0;entryDx=0;entryDy=0;strokeColor=default;align=center;verticalAlign=middle;fontFamily=Helvetica;fontSize=11;fontColor=default;labelBackgroundColor=default;startFill=0;endArrow=none;" parent="1" source="dEmUwoVIQgHfNwz5-q9_-104" target="dEmUwoVIQgHfNwz5-q9_-103" edge="1">
          <mxGeometry relative="1" as="geometry" />
        </mxCell>
        <mxCell id="Ajnwfm0adb8bjxYiWsa1-5" style="edgeStyle=none;shape=connector;rounded=0;orthogonalLoop=1;jettySize=auto;html=1;exitX=0.5;exitY=1;exitDx=0;exitDy=0;entryX=0.5;entryY=0;entryDx=0;entryDy=0;strokeColor=default;align=center;verticalAlign=middle;fontFamily=Helvetica;fontSize=11;fontColor=default;labelBackgroundColor=default;startFill=0;endArrow=none;" parent="1" source="dEmUwoVIQgHfNwz5-q9_-104" target="dEmUwoVIQgHfNwz5-q9_-102" edge="1">
          <mxGeometry relative="1" as="geometry" />
        </mxCell>
        <mxCell id="dEmUwoVIQgHfNwz5-q9_-104" value="&lt;font style=&quot;font-size: 16px;&quot;&gt;患者管理&lt;/font&gt;" style="rounded=0;whiteSpace=wrap;html=1;" parent="1" vertex="1">
          <mxGeometry x="1450" y="1610" width="120" height="50" as="geometry" />
        </mxCell>
        <mxCell id="dEmUwoVIQgHfNwz5-q9_-105" value="&lt;font style=&quot;font-size: 16px;&quot;&gt;订单中心&lt;/font&gt;" style="rounded=0;whiteSpace=wrap;html=1;" parent="1" vertex="1">
          <mxGeometry x="2025" y="1610" width="120" height="50" as="geometry" />
        </mxCell>
        <mxCell id="dEmUwoVIQgHfNwz5-q9_-110" value="&lt;font size=&quot;3&quot;&gt;参&lt;/font&gt;&lt;div&gt;&lt;font size=&quot;3&quot;&gt;数&lt;/font&gt;&lt;/div&gt;&lt;div&gt;&lt;font size=&quot;3&quot;&gt;配&lt;/font&gt;&lt;/div&gt;&lt;div&gt;&lt;font size=&quot;3&quot;&gt;置&lt;/font&gt;&lt;/div&gt;" style="rounded=0;whiteSpace=wrap;html=1;" parent="1" vertex="1">
          <mxGeometry x="2640" y="1720" width="50" height="240" as="geometry" />
        </mxCell>
        <mxCell id="dEmUwoVIQgHfNwz5-q9_-111" value="&lt;font size=&quot;3&quot;&gt;基&lt;/font&gt;&lt;div&gt;&lt;font size=&quot;3&quot;&gt;础&lt;/font&gt;&lt;/div&gt;&lt;div&gt;&lt;font size=&quot;3&quot;&gt;配&lt;/font&gt;&lt;/div&gt;&lt;div&gt;&lt;font size=&quot;3&quot;&gt;置&lt;/font&gt;&lt;/div&gt;" style="rounded=0;whiteSpace=wrap;html=1;" parent="1" vertex="1">
          <mxGeometry x="2460" y="1720" width="50" height="240" as="geometry" />
        </mxCell>
        <mxCell id="dEmUwoVIQgHfNwz5-q9_-112" value="&lt;font size=&quot;3&quot;&gt;用&lt;/font&gt;&lt;div&gt;&lt;font size=&quot;3&quot;&gt;户&lt;/font&gt;&lt;br&gt;&lt;div&gt;&lt;font size=&quot;3&quot;&gt;管&lt;br&gt;理&lt;/font&gt;&lt;/div&gt;&lt;/div&gt;" style="rounded=0;whiteSpace=wrap;html=1;" parent="1" vertex="1">
          <mxGeometry x="2579" y="1720" width="50" height="240" as="geometry" />
        </mxCell>
        <mxCell id="dEmUwoVIQgHfNwz5-q9_-113" value="&lt;font size=&quot;3&quot;&gt;角&lt;/font&gt;&lt;div&gt;&lt;font size=&quot;3&quot;&gt;色&lt;/font&gt;&lt;br&gt;&lt;div&gt;&lt;font size=&quot;3&quot;&gt;管&lt;br&gt;理&lt;/font&gt;&lt;/div&gt;&lt;/div&gt;" style="rounded=0;whiteSpace=wrap;html=1;" parent="1" vertex="1">
          <mxGeometry x="2520" y="1720" width="50" height="240" as="geometry" />
        </mxCell>
        <mxCell id="Ajnwfm0adb8bjxYiWsa1-6" style="edgeStyle=none;shape=connector;rounded=0;orthogonalLoop=1;jettySize=auto;html=1;exitX=0.5;exitY=1;exitDx=0;exitDy=0;entryX=0.5;entryY=0;entryDx=0;entryDy=0;strokeColor=default;align=center;verticalAlign=middle;fontFamily=Helvetica;fontSize=11;fontColor=default;labelBackgroundColor=default;startFill=0;endArrow=none;" parent="1" source="dEmUwoVIQgHfNwz5-q9_-115" target="dEmUwoVIQgHfNwz5-q9_-111" edge="1">
          <mxGeometry relative="1" as="geometry" />
        </mxCell>
        <mxCell id="Ajnwfm0adb8bjxYiWsa1-7" style="edgeStyle=none;shape=connector;rounded=0;orthogonalLoop=1;jettySize=auto;html=1;exitX=0.5;exitY=1;exitDx=0;exitDy=0;entryX=0.5;entryY=0;entryDx=0;entryDy=0;strokeColor=default;align=center;verticalAlign=middle;fontFamily=Helvetica;fontSize=11;fontColor=default;labelBackgroundColor=default;startFill=0;endArrow=none;" parent="1" source="dEmUwoVIQgHfNwz5-q9_-115" target="dEmUwoVIQgHfNwz5-q9_-113" edge="1">
          <mxGeometry relative="1" as="geometry" />
        </mxCell>
        <mxCell id="Ajnwfm0adb8bjxYiWsa1-8" style="edgeStyle=none;shape=connector;rounded=0;orthogonalLoop=1;jettySize=auto;html=1;exitX=0.5;exitY=1;exitDx=0;exitDy=0;entryX=0.5;entryY=0;entryDx=0;entryDy=0;strokeColor=default;align=center;verticalAlign=middle;fontFamily=Helvetica;fontSize=11;fontColor=default;labelBackgroundColor=default;startFill=0;endArrow=none;" parent="1" source="dEmUwoVIQgHfNwz5-q9_-115" target="dEmUwoVIQgHfNwz5-q9_-112" edge="1">
          <mxGeometry relative="1" as="geometry" />
        </mxCell>
        <mxCell id="Ajnwfm0adb8bjxYiWsa1-9" style="edgeStyle=none;shape=connector;rounded=0;orthogonalLoop=1;jettySize=auto;html=1;exitX=0.5;exitY=1;exitDx=0;exitDy=0;entryX=0.5;entryY=0;entryDx=0;entryDy=0;strokeColor=default;align=center;verticalAlign=middle;fontFamily=Helvetica;fontSize=11;fontColor=default;labelBackgroundColor=default;startFill=0;endArrow=none;" parent="1" source="dEmUwoVIQgHfNwz5-q9_-115" target="dEmUwoVIQgHfNwz5-q9_-110" edge="1">
          <mxGeometry relative="1" as="geometry" />
        </mxCell>
        <mxCell id="dEmUwoVIQgHfNwz5-q9_-115" value="&lt;span style=&quot;font-size: 16px;&quot;&gt;系统配置&lt;/span&gt;" style="rounded=0;whiteSpace=wrap;html=1;" parent="1" vertex="1">
          <mxGeometry x="2509" y="1610" width="120" height="50" as="geometry" />
        </mxCell>
        <mxCell id="KxoiUY1CaRy05x_mbYZg-1" style="edgeStyle=none;shape=connector;rounded=0;orthogonalLoop=1;jettySize=auto;html=1;exitX=0.5;exitY=1;exitDx=0;exitDy=0;entryX=0.5;entryY=0;entryDx=0;entryDy=0;strokeColor=default;align=center;verticalAlign=middle;fontFamily=Helvetica;fontSize=11;fontColor=default;labelBackgroundColor=default;startFill=0;endArrow=none;" edge="1" source="KxoiUY1CaRy05x_mbYZg-3" target="KxoiUY1CaRy05x_mbYZg-4" parent="1">
          <mxGeometry relative="1" as="geometry" />
        </mxCell>
        <mxCell id="KxoiUY1CaRy05x_mbYZg-3" value="&lt;font style=&quot;font-size: 16px;&quot;&gt;核心看板&lt;/font&gt;" style="rounded=0;whiteSpace=wrap;html=1;" vertex="1" parent="1">
          <mxGeometry x="1170" y="1610" width="120" height="50" as="geometry" />
        </mxCell>
        <mxCell id="KxoiUY1CaRy05x_mbYZg-4" value="&lt;span style=&quot;font-size: 16px;&quot;&gt;数&lt;/span&gt;&lt;div&gt;&lt;span style=&quot;font-size: 16px;&quot;&gt;据&lt;/span&gt;&lt;/div&gt;&lt;div&gt;&lt;span style=&quot;font-size: 16px;&quot;&gt;统&lt;/span&gt;&lt;/div&gt;&lt;div&gt;&lt;span style=&quot;font-size: 16px;&quot;&gt;计&lt;/span&gt;&lt;/div&gt;" style="rounded=0;whiteSpace=wrap;html=1;" vertex="1" parent="1">
          <mxGeometry x="1205" y="1720" width="50" height="240" as="geometry" />
        </mxCell>
        <mxCell id="KxoiUY1CaRy05x_mbYZg-10" style="edgeStyle=none;shape=connector;rounded=0;orthogonalLoop=1;jettySize=auto;html=1;exitX=0.5;exitY=1;exitDx=0;exitDy=0;entryX=0.5;entryY=0;entryDx=0;entryDy=0;strokeColor=default;align=center;verticalAlign=middle;fontFamily=Helvetica;fontSize=11;fontColor=default;labelBackgroundColor=default;startFill=0;endArrow=none;" edge="1" parent="1" source="KxoiUY1CaRy05x_mbYZg-11" target="KxoiUY1CaRy05x_mbYZg-12">
          <mxGeometry relative="1" as="geometry" />
        </mxCell>
        <mxCell id="KxoiUY1CaRy05x_mbYZg-11" value="&lt;font style=&quot;font-size: 16px;&quot;&gt;数据管理&lt;/font&gt;" style="rounded=0;whiteSpace=wrap;html=1;" vertex="1" parent="1">
          <mxGeometry x="2350" y="1610" width="120" height="50" as="geometry" />
        </mxCell>
        <mxCell id="KxoiUY1CaRy05x_mbYZg-12" value="&lt;font size=&quot;3&quot;&gt;字&lt;/font&gt;&lt;div&gt;&lt;font size=&quot;3&quot;&gt;典&lt;/font&gt;&lt;/div&gt;&lt;div&gt;&lt;font size=&quot;3&quot;&gt;管&lt;/font&gt;&lt;/div&gt;&lt;div&gt;&lt;font size=&quot;3&quot;&gt;理&lt;/font&gt;&lt;/div&gt;" style="rounded=0;whiteSpace=wrap;html=1;" vertex="1" parent="1">
          <mxGeometry x="2385" y="1720" width="50" height="240" as="geometry" />
        </mxCell>
      </root>
    </mxGraphModel>
  </diagram>
  <diagram id="3UcVxROunAI7WPlCkVyI" name="用例图3">
    <mxGraphModel dx="1239" dy="40" grid="1" gridSize="10" guides="1" tooltips="1" connect="1" arrows="1" fold="1" page="1" pageScale="1" pageWidth="827" pageHeight="1169" math="0" shadow="0">
      <root>
        <mxCell id="0" />
        <mxCell id="1" parent="0" />
        <mxCell id="CT1WzGA0q9MZTCaVPHCY-1" style="edgeStyle=none;shape=connector;rounded=0;orthogonalLoop=1;jettySize=auto;html=1;exitX=0.5;exitY=1;exitDx=0;exitDy=0;entryX=0.5;entryY=0;entryDx=0;entryDy=0;strokeColor=default;align=center;verticalAlign=middle;fontFamily=Helvetica;fontSize=11;fontColor=default;labelBackgroundColor=default;startFill=0;endArrow=none;" edge="1" parent="1" source="CT1WzGA0q9MZTCaVPHCY-10" target="CT1WzGA0q9MZTCaVPHCY-28">
          <mxGeometry relative="1" as="geometry" />
        </mxCell>
        <mxCell id="CT1WzGA0q9MZTCaVPHCY-2" style="edgeStyle=none;shape=connector;rounded=0;orthogonalLoop=1;jettySize=auto;html=1;exitX=0.5;exitY=1;exitDx=0;exitDy=0;entryX=0.5;entryY=0;entryDx=0;entryDy=0;strokeColor=default;align=center;verticalAlign=middle;fontFamily=Helvetica;fontSize=11;fontColor=default;labelBackgroundColor=default;startFill=0;endArrow=none;" edge="1" parent="1" source="CT1WzGA0q9MZTCaVPHCY-10" target="CT1WzGA0q9MZTCaVPHCY-33">
          <mxGeometry relative="1" as="geometry" />
        </mxCell>
        <mxCell id="CT1WzGA0q9MZTCaVPHCY-3" style="edgeStyle=none;shape=connector;rounded=0;orthogonalLoop=1;jettySize=auto;html=1;exitX=0.5;exitY=1;exitDx=0;exitDy=0;entryX=0.5;entryY=0;entryDx=0;entryDy=0;strokeColor=default;align=center;verticalAlign=middle;fontFamily=Helvetica;fontSize=11;fontColor=default;labelBackgroundColor=default;startFill=0;endArrow=none;" edge="1" parent="1" source="CT1WzGA0q9MZTCaVPHCY-33" target="CT1WzGA0q9MZTCaVPHCY-22">
          <mxGeometry relative="1" as="geometry" />
        </mxCell>
        <mxCell id="CT1WzGA0q9MZTCaVPHCY-4" style="edgeStyle=none;shape=connector;rounded=0;orthogonalLoop=1;jettySize=auto;html=1;exitX=0.5;exitY=1;exitDx=0;exitDy=0;entryX=0.25;entryY=0;entryDx=0;entryDy=0;strokeColor=default;align=center;verticalAlign=middle;fontFamily=Helvetica;fontSize=11;fontColor=default;labelBackgroundColor=default;startFill=0;endArrow=none;" edge="1" parent="1" source="CT1WzGA0q9MZTCaVPHCY-33" target="CT1WzGA0q9MZTCaVPHCY-21">
          <mxGeometry relative="1" as="geometry" />
        </mxCell>
        <mxCell id="CT1WzGA0q9MZTCaVPHCY-7" style="edgeStyle=none;shape=connector;rounded=0;orthogonalLoop=1;jettySize=auto;html=1;exitX=0.5;exitY=1;exitDx=0;exitDy=0;entryX=0.5;entryY=0;entryDx=0;entryDy=0;strokeColor=default;align=center;verticalAlign=middle;fontFamily=Helvetica;fontSize=11;fontColor=default;labelBackgroundColor=default;startFill=0;endArrow=none;" edge="1" parent="1" source="CT1WzGA0q9MZTCaVPHCY-10" target="CT1WzGA0q9MZTCaVPHCY-43">
          <mxGeometry relative="1" as="geometry" />
        </mxCell>
        <mxCell id="CT1WzGA0q9MZTCaVPHCY-69" style="rounded=0;orthogonalLoop=1;jettySize=auto;html=1;strokeColor=default;endArrow=none;startFill=0;" edge="1" parent="1" source="CT1WzGA0q9MZTCaVPHCY-10" target="CT1WzGA0q9MZTCaVPHCY-67">
          <mxGeometry relative="1" as="geometry" />
        </mxCell>
        <mxCell id="CT1WzGA0q9MZTCaVPHCY-10" value="&lt;span style=&quot;font-size: 16px;&quot;&gt;医院陪诊服务系统小程序&lt;/span&gt;" style="rounded=0;whiteSpace=wrap;html=1;" vertex="1" parent="1">
          <mxGeometry x="1790" y="1450" width="220" height="50" as="geometry" />
        </mxCell>
        <mxCell id="CT1WzGA0q9MZTCaVPHCY-15" style="edgeStyle=none;html=1;exitX=0.5;exitY=0;exitDx=0;exitDy=0;fontSize=16;endArrow=none;endFill=0;entryX=0.5;entryY=1;entryDx=0;entryDy=0;" edge="1" parent="1" source="CT1WzGA0q9MZTCaVPHCY-16" target="CT1WzGA0q9MZTCaVPHCY-43">
          <mxGeometry relative="1" as="geometry">
            <mxPoint x="2080" y="1470" as="targetPoint" />
          </mxGeometry>
        </mxCell>
        <mxCell id="CT1WzGA0q9MZTCaVPHCY-16" value="&lt;font size=&quot;3&quot;&gt;订&lt;/font&gt;&lt;div&gt;&lt;font size=&quot;3&quot;&gt;单&lt;/font&gt;&lt;/div&gt;&lt;div&gt;&lt;font size=&quot;3&quot;&gt;状&lt;/font&gt;&lt;/div&gt;&lt;div&gt;&lt;font size=&quot;3&quot;&gt;态&lt;/font&gt;&lt;/div&gt;&lt;div&gt;&lt;font size=&quot;3&quot;&gt;追&lt;/font&gt;&lt;/div&gt;&lt;div&gt;&lt;font size=&quot;3&quot;&gt;踪&lt;/font&gt;&lt;/div&gt;" style="rounded=0;whiteSpace=wrap;html=1;" vertex="1" parent="1">
          <mxGeometry x="2115" y="1710" width="50" height="240" as="geometry" />
        </mxCell>
        <mxCell id="CT1WzGA0q9MZTCaVPHCY-17" style="edgeStyle=none;html=1;exitX=0.5;exitY=0;exitDx=0;exitDy=0;fontSize=16;endArrow=none;endFill=0;entryX=0.5;entryY=1;entryDx=0;entryDy=0;" edge="1" parent="1" source="CT1WzGA0q9MZTCaVPHCY-18" target="CT1WzGA0q9MZTCaVPHCY-43">
          <mxGeometry relative="1" as="geometry">
            <mxPoint x="2080" y="1470" as="targetPoint" />
          </mxGeometry>
        </mxCell>
        <mxCell id="CT1WzGA0q9MZTCaVPHCY-18" value="&lt;font size=&quot;3&quot;&gt;服&lt;/font&gt;&lt;div&gt;&lt;font size=&quot;3&quot;&gt;务&lt;/font&gt;&lt;/div&gt;&lt;div&gt;&lt;font size=&quot;3&quot;&gt;过&lt;/font&gt;&lt;/div&gt;&lt;div&gt;&lt;font size=&quot;3&quot;&gt;程&lt;/font&gt;&lt;/div&gt;&lt;div&gt;&lt;font size=&quot;3&quot;&gt;记&lt;/font&gt;&lt;/div&gt;&lt;div&gt;&lt;font size=&quot;3&quot;&gt;录&lt;/font&gt;&lt;/div&gt;" style="rounded=0;whiteSpace=wrap;html=1;" vertex="1" parent="1">
          <mxGeometry x="2190" y="1710" width="50" height="240" as="geometry" />
        </mxCell>
        <mxCell id="CT1WzGA0q9MZTCaVPHCY-21" value="&lt;font size=&quot;3&quot;&gt;科&lt;/font&gt;&lt;div&gt;&lt;font size=&quot;3&quot;&gt;室&lt;/font&gt;&lt;/div&gt;&lt;div&gt;&lt;font size=&quot;3&quot;&gt;信&lt;/font&gt;&lt;/div&gt;&lt;div&gt;&lt;font size=&quot;3&quot;&gt;息&lt;/font&gt;&lt;/div&gt;" style="rounded=0;whiteSpace=wrap;html=1;" vertex="1" parent="1">
          <mxGeometry x="1500" y="1710" width="50" height="240" as="geometry" />
        </mxCell>
        <mxCell id="CT1WzGA0q9MZTCaVPHCY-22" value="&lt;font size=&quot;3&quot;&gt;医&lt;/font&gt;&lt;div&gt;&lt;font size=&quot;3&quot;&gt;院&lt;/font&gt;&lt;/div&gt;&lt;div&gt;&lt;font size=&quot;3&quot;&gt;信&lt;/font&gt;&lt;/div&gt;&lt;div&gt;&lt;font size=&quot;3&quot;&gt;息&lt;/font&gt;&lt;/div&gt;" style="rounded=0;whiteSpace=wrap;html=1;" vertex="1" parent="1">
          <mxGeometry x="1440" y="1710" width="50" height="240" as="geometry" />
        </mxCell>
        <mxCell id="CT1WzGA0q9MZTCaVPHCY-25" value="&lt;font size=&quot;3&quot;&gt;订&lt;/font&gt;&lt;div&gt;&lt;font size=&quot;3&quot;&gt;单&lt;/font&gt;&lt;/div&gt;&lt;div&gt;&lt;font size=&quot;3&quot;&gt;查&lt;/font&gt;&lt;/div&gt;&lt;div&gt;&lt;font size=&quot;3&quot;&gt;询&lt;/font&gt;&lt;/div&gt;" style="rounded=0;whiteSpace=wrap;html=1;" vertex="1" parent="1">
          <mxGeometry x="2040" y="1710" width="50" height="240" as="geometry" />
        </mxCell>
        <mxCell id="CT1WzGA0q9MZTCaVPHCY-26" value="" style="endArrow=none;html=1;rounded=0;exitX=0.5;exitY=1;exitDx=0;exitDy=0;entryX=0.5;entryY=0;entryDx=0;entryDy=0;startFill=0;" edge="1" parent="1" source="CT1WzGA0q9MZTCaVPHCY-43" target="CT1WzGA0q9MZTCaVPHCY-25">
          <mxGeometry width="50" height="50" relative="1" as="geometry">
            <mxPoint x="1920" y="1730" as="sourcePoint" />
            <mxPoint x="1970" y="1680" as="targetPoint" />
          </mxGeometry>
        </mxCell>
        <mxCell id="CT1WzGA0q9MZTCaVPHCY-27" style="edgeStyle=none;shape=connector;rounded=0;orthogonalLoop=1;jettySize=auto;html=1;exitX=0.5;exitY=1;exitDx=0;exitDy=0;entryX=0.5;entryY=0;entryDx=0;entryDy=0;strokeColor=default;align=center;verticalAlign=middle;fontFamily=Helvetica;fontSize=11;fontColor=default;labelBackgroundColor=default;startFill=0;endArrow=none;" edge="1" parent="1" source="CT1WzGA0q9MZTCaVPHCY-28" target="CT1WzGA0q9MZTCaVPHCY-34">
          <mxGeometry relative="1" as="geometry" />
        </mxCell>
        <mxCell id="CT1WzGA0q9MZTCaVPHCY-28" value="&lt;font style=&quot;font-size: 16px;&quot;&gt;投诉反馈&lt;/font&gt;" style="rounded=0;whiteSpace=wrap;html=1;" vertex="1" parent="1">
          <mxGeometry x="2240" y="1600" width="120" height="50" as="geometry" />
        </mxCell>
        <mxCell id="CT1WzGA0q9MZTCaVPHCY-29" value="&lt;div&gt;&lt;font size=&quot;3&quot;&gt;医&lt;/font&gt;&lt;/div&gt;&lt;div&gt;&lt;font size=&quot;3&quot;&gt;生&lt;/font&gt;&lt;/div&gt;&lt;div&gt;&lt;font size=&quot;3&quot;&gt;信&lt;/font&gt;&lt;/div&gt;&lt;div&gt;&lt;font size=&quot;3&quot;&gt;息&lt;/font&gt;&lt;/div&gt;" style="rounded=0;whiteSpace=wrap;html=1;" vertex="1" parent="1">
          <mxGeometry x="1560" y="1710" width="50" height="240" as="geometry" />
        </mxCell>
        <mxCell id="CT1WzGA0q9MZTCaVPHCY-30" value="&lt;font size=&quot;3&quot;&gt;医&lt;/font&gt;&lt;div&gt;&lt;font size=&quot;3&quot;&gt;院&lt;/font&gt;&lt;/div&gt;&lt;div&gt;&lt;font size=&quot;3&quot;&gt;排&lt;/font&gt;&lt;/div&gt;&lt;div&gt;&lt;font size=&quot;3&quot;&gt;班&lt;/font&gt;&lt;/div&gt;" style="rounded=0;whiteSpace=wrap;html=1;" vertex="1" parent="1">
          <mxGeometry x="1620" y="1710" width="50" height="240" as="geometry" />
        </mxCell>
        <mxCell id="CT1WzGA0q9MZTCaVPHCY-31" style="edgeStyle=none;shape=connector;rounded=0;orthogonalLoop=1;jettySize=auto;html=1;exitX=0.5;exitY=1;exitDx=0;exitDy=0;entryX=0.5;entryY=0;entryDx=0;entryDy=0;strokeColor=default;align=center;verticalAlign=middle;fontFamily=Helvetica;fontSize=11;fontColor=default;labelBackgroundColor=default;startFill=0;endArrow=none;" edge="1" parent="1" source="CT1WzGA0q9MZTCaVPHCY-33" target="CT1WzGA0q9MZTCaVPHCY-29">
          <mxGeometry relative="1" as="geometry" />
        </mxCell>
        <mxCell id="CT1WzGA0q9MZTCaVPHCY-32" style="edgeStyle=none;shape=connector;rounded=0;orthogonalLoop=1;jettySize=auto;html=1;exitX=0.5;exitY=1;exitDx=0;exitDy=0;entryX=0.5;entryY=0;entryDx=0;entryDy=0;strokeColor=default;align=center;verticalAlign=middle;fontFamily=Helvetica;fontSize=11;fontColor=default;labelBackgroundColor=default;startFill=0;endArrow=none;" edge="1" parent="1" source="CT1WzGA0q9MZTCaVPHCY-33" target="CT1WzGA0q9MZTCaVPHCY-30">
          <mxGeometry relative="1" as="geometry" />
        </mxCell>
        <mxCell id="CT1WzGA0q9MZTCaVPHCY-33" value="&lt;span style=&quot;font-size: 16px;&quot;&gt;医院信息&lt;/span&gt;" style="rounded=0;whiteSpace=wrap;html=1;" vertex="1" parent="1">
          <mxGeometry x="1490" y="1600" width="120" height="50" as="geometry" />
        </mxCell>
        <mxCell id="CT1WzGA0q9MZTCaVPHCY-34" value="&lt;font size=&quot;3&quot;&gt;投&lt;/font&gt;&lt;div&gt;&lt;font size=&quot;3&quot;&gt;诉&lt;/font&gt;&lt;br&gt;&lt;div&gt;&lt;font size=&quot;3&quot;&gt;反&lt;/font&gt;&lt;/div&gt;&lt;div&gt;&lt;font size=&quot;3&quot;&gt;馈&lt;/font&gt;&lt;/div&gt;&lt;/div&gt;" style="rounded=0;whiteSpace=wrap;html=1;" vertex="1" parent="1">
          <mxGeometry x="2275" y="1710" width="50" height="240" as="geometry" />
        </mxCell>
        <mxCell id="CT1WzGA0q9MZTCaVPHCY-43" value="&lt;font style=&quot;font-size: 16px;&quot;&gt;订单中心&lt;/font&gt;" style="rounded=0;whiteSpace=wrap;html=1;" vertex="1" parent="1">
          <mxGeometry x="2080" y="1600" width="120" height="50" as="geometry" />
        </mxCell>
        <mxCell id="CT1WzGA0q9MZTCaVPHCY-59" style="edgeStyle=none;shape=connector;rounded=0;orthogonalLoop=1;jettySize=auto;html=1;exitX=0.5;exitY=1;exitDx=0;exitDy=0;entryX=0.5;entryY=0;entryDx=0;entryDy=0;strokeColor=default;align=center;verticalAlign=middle;fontFamily=Helvetica;fontSize=11;fontColor=default;labelBackgroundColor=default;startFill=0;endArrow=none;" edge="1" parent="1" source="CT1WzGA0q9MZTCaVPHCY-67" target="CT1WzGA0q9MZTCaVPHCY-62">
          <mxGeometry relative="1" as="geometry" />
        </mxCell>
        <mxCell id="CT1WzGA0q9MZTCaVPHCY-60" style="edgeStyle=none;shape=connector;rounded=0;orthogonalLoop=1;jettySize=auto;html=1;exitX=0.5;exitY=1;exitDx=0;exitDy=0;entryX=0.5;entryY=0;entryDx=0;entryDy=0;strokeColor=default;align=center;verticalAlign=middle;fontFamily=Helvetica;fontSize=11;fontColor=default;labelBackgroundColor=default;startFill=0;endArrow=none;" edge="1" parent="1" source="CT1WzGA0q9MZTCaVPHCY-67" target="CT1WzGA0q9MZTCaVPHCY-61">
          <mxGeometry relative="1" as="geometry" />
        </mxCell>
        <mxCell id="CT1WzGA0q9MZTCaVPHCY-61" value="&lt;font size=&quot;3&quot;&gt;陪&lt;/font&gt;&lt;div&gt;&lt;font size=&quot;3&quot;&gt;诊&lt;/font&gt;&lt;/div&gt;&lt;div&gt;&lt;font size=&quot;3&quot;&gt;师&lt;/font&gt;&lt;/div&gt;&lt;div&gt;&lt;font size=&quot;3&quot;&gt;信&lt;/font&gt;&lt;/div&gt;&lt;div&gt;&lt;font size=&quot;3&quot;&gt;息&lt;/font&gt;&lt;/div&gt;" style="rounded=0;whiteSpace=wrap;html=1;" vertex="1" parent="1">
          <mxGeometry x="1830" y="1710" width="50" height="240" as="geometry" />
        </mxCell>
        <mxCell id="CT1WzGA0q9MZTCaVPHCY-62" value="&lt;font size=&quot;3&quot;&gt;套&lt;/font&gt;&lt;div&gt;&lt;font size=&quot;3&quot;&gt;餐&lt;/font&gt;&lt;/div&gt;&lt;div&gt;&lt;font size=&quot;3&quot;&gt;信&lt;/font&gt;&lt;/div&gt;&lt;div&gt;&lt;font size=&quot;3&quot;&gt;息&lt;/font&gt;&lt;/div&gt;" style="rounded=0;whiteSpace=wrap;html=1;" vertex="1" parent="1">
          <mxGeometry x="1690" y="1710" width="50" height="240" as="geometry" />
        </mxCell>
        <mxCell id="CT1WzGA0q9MZTCaVPHCY-63" value="&lt;div&gt;&lt;font size=&quot;3&quot;&gt;下&lt;/font&gt;&lt;/div&gt;&lt;div&gt;&lt;font size=&quot;3&quot;&gt;单&lt;/font&gt;&lt;/div&gt;&lt;div&gt;&lt;font size=&quot;3&quot;&gt;和&lt;/font&gt;&lt;/div&gt;&lt;div&gt;&lt;font size=&quot;3&quot;&gt;评&lt;/font&gt;&lt;/div&gt;&lt;div&gt;&lt;font size=&quot;3&quot;&gt;价&lt;/font&gt;&lt;/div&gt;" style="rounded=0;whiteSpace=wrap;html=1;" vertex="1" parent="1">
          <mxGeometry x="1890" y="1710" width="50" height="240" as="geometry" />
        </mxCell>
        <mxCell id="CT1WzGA0q9MZTCaVPHCY-65" style="edgeStyle=none;shape=connector;rounded=0;orthogonalLoop=1;jettySize=auto;html=1;exitX=0.5;exitY=1;exitDx=0;exitDy=0;entryX=0.5;entryY=0;entryDx=0;entryDy=0;strokeColor=default;align=center;verticalAlign=middle;fontFamily=Helvetica;fontSize=11;fontColor=default;labelBackgroundColor=default;startFill=0;endArrow=none;" edge="1" parent="1" source="CT1WzGA0q9MZTCaVPHCY-67" target="CT1WzGA0q9MZTCaVPHCY-63">
          <mxGeometry relative="1" as="geometry" />
        </mxCell>
        <mxCell id="CT1WzGA0q9MZTCaVPHCY-71" style="rounded=0;orthogonalLoop=1;jettySize=auto;html=1;entryX=0.5;entryY=0;entryDx=0;entryDy=0;endArrow=none;startFill=0;exitX=0.5;exitY=1;exitDx=0;exitDy=0;" edge="1" parent="1" source="CT1WzGA0q9MZTCaVPHCY-67" target="CT1WzGA0q9MZTCaVPHCY-70">
          <mxGeometry relative="1" as="geometry" />
        </mxCell>
        <mxCell id="CT1WzGA0q9MZTCaVPHCY-74" style="edgeStyle=none;shape=connector;rounded=0;orthogonalLoop=1;jettySize=auto;html=1;exitX=0.5;exitY=1;exitDx=0;exitDy=0;entryX=0.5;entryY=0;entryDx=0;entryDy=0;strokeColor=default;align=center;verticalAlign=middle;fontFamily=Helvetica;fontSize=11;fontColor=default;labelBackgroundColor=default;startFill=0;endArrow=none;" edge="1" parent="1" source="CT1WzGA0q9MZTCaVPHCY-67" target="CT1WzGA0q9MZTCaVPHCY-72">
          <mxGeometry relative="1" as="geometry" />
        </mxCell>
        <mxCell id="CT1WzGA0q9MZTCaVPHCY-67" value="&lt;span style=&quot;font-size: 16px;&quot;&gt;陪诊服务&lt;/span&gt;" style="rounded=0;whiteSpace=wrap;html=1;" vertex="1" parent="1">
          <mxGeometry x="1820" y="1600" width="120" height="50" as="geometry" />
        </mxCell>
        <mxCell id="CT1WzGA0q9MZTCaVPHCY-70" value="&lt;div&gt;&lt;font size=&quot;3&quot;&gt;申&lt;/font&gt;&lt;/div&gt;&lt;div&gt;&lt;font size=&quot;3&quot;&gt;请&lt;/font&gt;&lt;/div&gt;&lt;div&gt;&lt;font size=&quot;3&quot;&gt;新&lt;/font&gt;&lt;/div&gt;&lt;div&gt;&lt;font size=&quot;3&quot;&gt;套&lt;/font&gt;&lt;/div&gt;&lt;div&gt;&lt;font size=&quot;3&quot;&gt;餐&lt;/font&gt;&lt;/div&gt;" style="rounded=0;whiteSpace=wrap;html=1;" vertex="1" parent="1">
          <mxGeometry x="1960" y="1710" width="50" height="240" as="geometry" />
        </mxCell>
        <mxCell id="CT1WzGA0q9MZTCaVPHCY-72" value="&lt;font size=&quot;3&quot;&gt;患&lt;/font&gt;&lt;div&gt;&lt;font size=&quot;3&quot;&gt;者&lt;/font&gt;&lt;/div&gt;&lt;div&gt;&lt;font size=&quot;3&quot;&gt;档&lt;/font&gt;&lt;/div&gt;&lt;div&gt;&lt;font size=&quot;3&quot;&gt;案&lt;/font&gt;&lt;/div&gt;" style="rounded=0;whiteSpace=wrap;html=1;" vertex="1" parent="1">
          <mxGeometry x="1760" y="1710" width="50" height="240" as="geometry" />
        </mxCell>
      </root>
    </mxGraphModel>
  </diagram>
  <diagram id="feq2ATtECsg9mCRDqLKM" name="架构图2">
    <mxGraphModel dx="2549" dy="1008" grid="1" gridSize="10" guides="1" tooltips="1" connect="1" arrows="1" fold="1" page="1" pageScale="1" pageWidth="827" pageHeight="1169" math="0" shadow="0">
      <root>
        <mxCell id="0" />
        <mxCell id="1" parent="0" />
        <mxCell id="rgQ3ZVQB2mkIudxwM6K4-1" value="" style="rounded=0;whiteSpace=wrap;html=1;fontSize=18;" parent="1" vertex="1">
          <mxGeometry x="-695" y="1390" width="615" height="170" as="geometry" />
        </mxCell>
        <mxCell id="rgQ3ZVQB2mkIudxwM6K4-2" value="" style="rounded=0;whiteSpace=wrap;html=1;fontSize=18;" parent="1" vertex="1">
          <mxGeometry x="-700" y="1250" width="620" height="70" as="geometry" />
        </mxCell>
        <mxCell id="rgQ3ZVQB2mkIudxwM6K4-3" value="" style="rounded=0;whiteSpace=wrap;html=1;" parent="1" vertex="1">
          <mxGeometry x="-695" y="1590" width="615" height="60" as="geometry" />
        </mxCell>
        <mxCell id="rgQ3ZVQB2mkIudxwM6K4-4" value="&lt;span style=&quot;font-size: 18px;&quot;&gt;Node.js/Uni App&lt;/span&gt;" style="rounded=0;whiteSpace=wrap;html=1;" parent="1" vertex="1">
          <mxGeometry x="-470" y="1260" width="146.5" height="50" as="geometry" />
        </mxCell>
        <mxCell id="rgQ3ZVQB2mkIudxwM6K4-5" value="&lt;font style=&quot;font-size: 18px;&quot;&gt;MySQL&lt;/font&gt;" style="rounded=0;whiteSpace=wrap;html=1;" parent="1" vertex="1">
          <mxGeometry x="-527" y="1600" width="120" height="40" as="geometry" />
        </mxCell>
        <mxCell id="rgQ3ZVQB2mkIudxwM6K4-6" value="&lt;span style=&quot;font-size: 18px;&quot;&gt;HTML + CSS + JS&lt;/span&gt;" style="rounded=0;whiteSpace=wrap;html=1;" parent="1" vertex="1">
          <mxGeometry x="-680" y="1260" width="159" height="50" as="geometry" />
        </mxCell>
        <mxCell id="rgQ3ZVQB2mkIudxwM6K4-7" value="&lt;span style=&quot;font-size: 18px;&quot;&gt;电脑&lt;/span&gt;" style="rounded=0;whiteSpace=wrap;html=1;" parent="1" vertex="1">
          <mxGeometry x="-700" y="1150" width="310" height="50" as="geometry" />
        </mxCell>
        <mxCell id="rgQ3ZVQB2mkIudxwM6K4-9" value="显示层" style="text;html=1;strokeColor=none;fillColor=none;align=center;verticalAlign=middle;whiteSpace=wrap;rounded=0;fontSize=18;" parent="1" vertex="1">
          <mxGeometry x="-775" y="1270" width="70" height="30" as="geometry" />
        </mxCell>
        <mxCell id="rgQ3ZVQB2mkIudxwM6K4-10" value="用户" style="text;html=1;strokeColor=none;fillColor=none;align=center;verticalAlign=middle;whiteSpace=wrap;rounded=0;fontSize=18;" parent="1" vertex="1">
          <mxGeometry x="-770" y="1160" width="60" height="30" as="geometry" />
        </mxCell>
        <mxCell id="rgQ3ZVQB2mkIudxwM6K4-12" value="" style="shape=flexArrow;endArrow=classic;html=1;fontSize=18;exitX=0.5;exitY=1;exitDx=0;exitDy=0;entryX=0.25;entryY=0;entryDx=0;entryDy=0;width=22.06896551724138;endSize=6;" parent="1" source="rgQ3ZVQB2mkIudxwM6K4-7" target="rgQ3ZVQB2mkIudxwM6K4-2" edge="1">
          <mxGeometry width="50" height="50" relative="1" as="geometry">
            <mxPoint x="-460" y="1320" as="sourcePoint" />
            <mxPoint x="-415" y="1170" as="targetPoint" />
          </mxGeometry>
        </mxCell>
        <mxCell id="rgQ3ZVQB2mkIudxwM6K4-13" value="&lt;span style=&quot;font-size: 18px;&quot;&gt;Vue.js + Element Plus&lt;/span&gt;" style="rounded=0;whiteSpace=wrap;html=1;" parent="1" vertex="1">
          <mxGeometry x="-284.25" y="1260" width="184.25" height="50" as="geometry" />
        </mxCell>
        <mxCell id="rgQ3ZVQB2mkIudxwM6K4-14" value="My Batis Flex" style="rounded=0;whiteSpace=wrap;html=1;fontSize=18;" parent="1" vertex="1">
          <mxGeometry x="-220" y="1600" width="120" height="40" as="geometry" />
        </mxCell>
        <mxCell id="rgQ3ZVQB2mkIudxwM6K4-21" value="业务层" style="text;html=1;strokeColor=none;fillColor=none;align=center;verticalAlign=middle;whiteSpace=wrap;rounded=0;fontSize=18;" parent="1" vertex="1">
          <mxGeometry x="-775" y="1460" width="60" height="30" as="geometry" />
        </mxCell>
        <mxCell id="rgQ3ZVQB2mkIudxwM6K4-53" value="数据层" style="text;html=1;strokeColor=none;fillColor=none;align=center;verticalAlign=middle;whiteSpace=wrap;rounded=0;fontSize=18;" parent="1" vertex="1">
          <mxGeometry x="-770" y="1605" width="60" height="30" as="geometry" />
        </mxCell>
        <mxCell id="rgQ3ZVQB2mkIudxwM6K4-55" value="" style="shape=flexArrow;endArrow=classic;html=1;fontSize=18;width=22.06896551724138;endSize=6;entryX=0.5;entryY=0;entryDx=0;entryDy=0;" parent="1" target="rgQ3ZVQB2mkIudxwM6K4-1" edge="1">
          <mxGeometry width="50" height="50" relative="1" as="geometry">
            <mxPoint x="-387" y="1320" as="sourcePoint" />
            <mxPoint x="-388" y="1170" as="targetPoint" />
          </mxGeometry>
        </mxCell>
        <mxCell id="rgQ3ZVQB2mkIudxwM6K4-56" value="" style="shape=flexArrow;endArrow=classic;html=1;fontSize=18;exitX=0.5;exitY=1;exitDx=0;exitDy=0;entryX=0.5;entryY=0;entryDx=0;entryDy=0;width=22.06896551724138;endSize=6;" parent="1" edge="1">
          <mxGeometry width="50" height="50" relative="1" as="geometry">
            <mxPoint x="-388.2099999999997" y="1560" as="sourcePoint" />
            <mxPoint x="-388.2099999999997" y="1590" as="targetPoint" />
          </mxGeometry>
        </mxCell>
        <mxCell id="da9lNopC2QiSl_JHTNgU-4" value="" style="shape=flexArrow;endArrow=classic;html=1;fontSize=18;exitX=0.5;exitY=1;exitDx=0;exitDy=0;entryX=0.75;entryY=0;entryDx=0;entryDy=0;width=22.06896551724138;endSize=6;" edge="1" parent="1" target="rgQ3ZVQB2mkIudxwM6K4-2" source="da9lNopC2QiSl_JHTNgU-5">
          <mxGeometry width="50" height="50" relative="1" as="geometry">
            <mxPoint x="-230" y="1140" as="sourcePoint" />
            <mxPoint x="-230" y="1250" as="targetPoint" />
          </mxGeometry>
        </mxCell>
        <mxCell id="da9lNopC2QiSl_JHTNgU-5" value="&lt;span style=&quot;font-size: 18px;&quot;&gt;手机&lt;/span&gt;" style="rounded=0;whiteSpace=wrap;html=1;" vertex="1" parent="1">
          <mxGeometry x="-390" y="1150" width="310" height="50" as="geometry" />
        </mxCell>
        <mxCell id="da9lNopC2QiSl_JHTNgU-6" value="&lt;font style=&quot;font-size: 18px;&quot;&gt;My Batis ORM&lt;/font&gt;" style="rounded=0;whiteSpace=wrap;html=1;" vertex="1" parent="1">
          <mxGeometry x="-373" y="1600" width="120" height="40" as="geometry" />
        </mxCell>
        <mxCell id="hSDbREgW3x7nsCcebmMQ-3" value="&lt;span style=&quot;font-size: 18px;&quot;&gt;Spring Boot + Web +&lt;/span&gt;&lt;span style=&quot;font-size: 18px; background-color: transparent; color: light-dark(rgb(0, 0, 0), rgb(255, 255, 255));&quot;&gt;&amp;nbsp;Security&lt;/span&gt;" style="rounded=0;whiteSpace=wrap;html=1;" vertex="1" parent="1">
          <mxGeometry x="-680" y="1410" width="280" height="50" as="geometry" />
        </mxCell>
        <mxCell id="hSDbREgW3x7nsCcebmMQ-4" value="&lt;span style=&quot;font-size: 18px;&quot;&gt;Controller + Service + Mapper + Entity&lt;/span&gt;" style="rounded=0;whiteSpace=wrap;html=1;" vertex="1" parent="1">
          <mxGeometry x="-680" y="1490" width="320" height="50" as="geometry" />
        </mxCell>
        <mxCell id="hSDbREgW3x7nsCcebmMQ-5" value="&lt;font style=&quot;font-size: 18px;&quot;&gt;Redis&lt;/font&gt;" style="rounded=0;whiteSpace=wrap;html=1;" vertex="1" parent="1">
          <mxGeometry x="-680" y="1600" width="120" height="40" as="geometry" />
        </mxCell>
      </root>
    </mxGraphModel>
  </diagram>
  <diagram id="JgNNc_tm87Jy_87SYWze" name="ER图2">
    <mxGraphModel dx="3258" dy="1422" grid="1" gridSize="10" guides="1" tooltips="1" connect="1" arrows="1" fold="1" page="1" pageScale="1" pageWidth="827" pageHeight="1169" math="0" shadow="0">
      <root>
        <mxCell id="0" />
        <mxCell id="1" parent="0" />
        <mxCell id="GidRtad3aW7h_aLm99Ge-2" value="系统角色菜单表" style="rounded=0;whiteSpace=wrap;html=1;fontSize=18;" parent="1" vertex="1">
          <mxGeometry x="497.5" y="1460" width="130" height="60" as="geometry" />
        </mxCell>
        <mxCell id="GidRtad3aW7h_aLm99Ge-3" style="edgeStyle=none;shape=connector;rounded=0;orthogonalLoop=1;jettySize=auto;html=1;entryX=0.5;entryY=0;entryDx=0;entryDy=0;strokeColor=default;align=center;verticalAlign=middle;fontFamily=Helvetica;fontSize=18;fontColor=default;labelBackgroundColor=default;resizable=0;startFill=0;endArrow=none;exitX=0.5;exitY=1;exitDx=0;exitDy=0;" parent="1" source="GidRtad3aW7h_aLm99Ge-6" target="GidRtad3aW7h_aLm99Ge-30" edge="1">
          <mxGeometry relative="1" as="geometry" />
        </mxCell>
        <mxCell id="GidRtad3aW7h_aLm99Ge-4" value="1" style="edgeLabel;html=1;align=center;verticalAlign=middle;resizable=0;points=[];fontFamily=Helvetica;fontSize=18;fontColor=default;labelBackgroundColor=default;fillColor=none;gradientColor=none;" parent="GidRtad3aW7h_aLm99Ge-3" vertex="1" connectable="0">
          <mxGeometry x="0.7029" y="-1" relative="1" as="geometry">
            <mxPoint as="offset" />
          </mxGeometry>
        </mxCell>
        <mxCell id="GidRtad3aW7h_aLm99Ge-5" value="1" style="edgeLabel;html=1;align=center;verticalAlign=middle;resizable=0;points=[];fontFamily=Helvetica;fontSize=18;fontColor=default;labelBackgroundColor=default;fillColor=none;gradientColor=none;" parent="GidRtad3aW7h_aLm99Ge-3" vertex="1" connectable="0">
          <mxGeometry x="-0.6849" y="1" relative="1" as="geometry">
            <mxPoint as="offset" />
          </mxGeometry>
        </mxCell>
        <mxCell id="GidRtad3aW7h_aLm99Ge-6" value="用户信息" style="rounded=0;whiteSpace=wrap;html=1;fontSize=18;" parent="1" vertex="1">
          <mxGeometry x="282" y="1106.4" width="120" height="61.5" as="geometry" />
        </mxCell>
        <mxCell id="GidRtad3aW7h_aLm99Ge-7" style="edgeStyle=none;html=1;exitX=0.5;exitY=0;exitDx=0;exitDy=0;entryX=0.5;entryY=1;entryDx=0;entryDy=0;fontSize=18;endArrow=none;endFill=0;" parent="1" source="GidRtad3aW7h_aLm99Ge-11" target="GidRtad3aW7h_aLm99Ge-24" edge="1">
          <mxGeometry relative="1" as="geometry" />
        </mxCell>
        <mxCell id="GidRtad3aW7h_aLm99Ge-8" style="edgeStyle=none;html=1;exitX=0.5;exitY=1;exitDx=0;exitDy=0;entryX=0;entryY=0.5;entryDx=0;entryDy=0;fontSize=18;endArrow=none;endFill=0;" parent="1" source="GidRtad3aW7h_aLm99Ge-11" target="GidRtad3aW7h_aLm99Ge-30" edge="1">
          <mxGeometry relative="1" as="geometry" />
        </mxCell>
        <mxCell id="GidRtad3aW7h_aLm99Ge-9" value="1" style="edgeLabel;html=1;align=center;verticalAlign=middle;resizable=0;points=[];fontFamily=Helvetica;fontSize=18;fontColor=default;labelBackgroundColor=default;fillColor=none;gradientColor=none;" parent="GidRtad3aW7h_aLm99Ge-8" vertex="1" connectable="0">
          <mxGeometry x="0.6513" y="-2" relative="1" as="geometry">
            <mxPoint as="offset" />
          </mxGeometry>
        </mxCell>
        <mxCell id="GidRtad3aW7h_aLm99Ge-10" value="1" style="edgeLabel;html=1;align=center;verticalAlign=middle;resizable=0;points=[];fontFamily=Helvetica;fontSize=18;fontColor=default;labelBackgroundColor=default;fillColor=none;gradientColor=none;" parent="GidRtad3aW7h_aLm99Ge-8" vertex="1" connectable="0">
          <mxGeometry x="-0.5367" y="-2" relative="1" as="geometry">
            <mxPoint y="1" as="offset" />
          </mxGeometry>
        </mxCell>
        <mxCell id="GidRtad3aW7h_aLm99Ge-11" value="患者档案" style="rounded=0;whiteSpace=wrap;html=1;fontSize=18;" parent="1" vertex="1">
          <mxGeometry x="-40" y="1220" width="120" height="60" as="geometry" />
        </mxCell>
        <mxCell id="GidRtad3aW7h_aLm99Ge-14" style="edgeStyle=none;html=1;exitX=0.5;exitY=1;exitDx=0;exitDy=0;entryX=0.5;entryY=0;entryDx=0;entryDy=0;fontSize=18;endArrow=none;endFill=0;" parent="1" source="GidRtad3aW7h_aLm99Ge-15" target="GidRtad3aW7h_aLm99Ge-2" edge="1">
          <mxGeometry relative="1" as="geometry" />
        </mxCell>
        <mxCell id="GidRtad3aW7h_aLm99Ge-15" value="更新时间" style="ellipse;whiteSpace=wrap;html=1;fontSize=18;" parent="1" vertex="1">
          <mxGeometry x="430" y="1280" width="100" height="50" as="geometry" />
        </mxCell>
        <mxCell id="GidRtad3aW7h_aLm99Ge-16" style="edgeStyle=none;html=1;exitX=1;exitY=0.5;exitDx=0;exitDy=0;entryX=0;entryY=0.5;entryDx=0;entryDy=0;fontSize=18;endArrow=none;endFill=0;" parent="1" source="GidRtad3aW7h_aLm99Ge-17" target="GidRtad3aW7h_aLm99Ge-6" edge="1">
          <mxGeometry relative="1" as="geometry" />
        </mxCell>
        <mxCell id="GidRtad3aW7h_aLm99Ge-17" value="昵称" style="ellipse;whiteSpace=wrap;html=1;fontSize=18;" parent="1" vertex="1">
          <mxGeometry x="142" y="1073.9" width="100" height="50" as="geometry" />
        </mxCell>
        <mxCell id="GidRtad3aW7h_aLm99Ge-18" style="edgeStyle=none;shape=connector;rounded=0;orthogonalLoop=1;jettySize=auto;html=1;exitX=1;exitY=0.5;exitDx=0;exitDy=0;entryX=0;entryY=0.5;entryDx=0;entryDy=0;strokeColor=default;align=center;verticalAlign=middle;fontFamily=Helvetica;fontSize=11;fontColor=default;labelBackgroundColor=default;startFill=0;endArrow=none;" parent="1" source="GidRtad3aW7h_aLm99Ge-19" target="GidRtad3aW7h_aLm99Ge-6" edge="1">
          <mxGeometry relative="1" as="geometry" />
        </mxCell>
        <mxCell id="GidRtad3aW7h_aLm99Ge-19" value="手机号" style="ellipse;whiteSpace=wrap;html=1;fontSize=18;" parent="1" vertex="1">
          <mxGeometry x="32" y="1112.9" width="100" height="50" as="geometry" />
        </mxCell>
        <mxCell id="GidRtad3aW7h_aLm99Ge-20" style="edgeStyle=none;html=1;exitX=1;exitY=0.5;exitDx=0;exitDy=0;fontSize=18;endArrow=none;endFill=0;entryX=0;entryY=0.5;entryDx=0;entryDy=0;" parent="1" source="GidRtad3aW7h_aLm99Ge-21" target="GidRtad3aW7h_aLm99Ge-6" edge="1">
          <mxGeometry relative="1" as="geometry">
            <mxPoint x="312" y="1180.18" as="targetPoint" />
          </mxGeometry>
        </mxCell>
        <mxCell id="GidRtad3aW7h_aLm99Ge-21" value="....." style="ellipse;whiteSpace=wrap;html=1;fontSize=18;" parent="1" vertex="1">
          <mxGeometry x="142" y="1151.4" width="100" height="50" as="geometry" />
        </mxCell>
        <mxCell id="GidRtad3aW7h_aLm99Ge-22" style="edgeStyle=none;html=1;exitX=0.5;exitY=1;exitDx=0;exitDy=0;entryX=0.5;entryY=0;entryDx=0;entryDy=0;fontSize=18;endArrow=none;endFill=0;" parent="1" source="GidRtad3aW7h_aLm99Ge-23" target="GidRtad3aW7h_aLm99Ge-11" edge="1">
          <mxGeometry relative="1" as="geometry" />
        </mxCell>
        <mxCell id="GidRtad3aW7h_aLm99Ge-23" value="姓名" style="ellipse;whiteSpace=wrap;html=1;fontSize=18;" parent="1" vertex="1">
          <mxGeometry x="-150" y="1112.15" width="100" height="50" as="geometry" />
        </mxCell>
        <mxCell id="GidRtad3aW7h_aLm99Ge-24" value="性别" style="ellipse;whiteSpace=wrap;html=1;fontSize=18;" parent="1" vertex="1">
          <mxGeometry x="-260" y="1106.4" width="100" height="50" as="geometry" />
        </mxCell>
        <mxCell id="GidRtad3aW7h_aLm99Ge-25" style="edgeStyle=none;html=1;exitX=0.5;exitY=1;exitDx=0;exitDy=0;entryX=0.5;entryY=0;entryDx=0;entryDy=0;fontSize=18;endArrow=none;endFill=0;" parent="1" source="GidRtad3aW7h_aLm99Ge-30" target="GidRtad3aW7h_aLm99Ge-31" edge="1">
          <mxGeometry relative="1" as="geometry" />
        </mxCell>
        <mxCell id="GidRtad3aW7h_aLm99Ge-26" style="edgeStyle=none;html=1;exitX=0.5;exitY=1;exitDx=0;exitDy=0;entryX=0.5;entryY=0;entryDx=0;entryDy=0;fontSize=18;endArrow=none;endFill=0;" parent="1" source="GidRtad3aW7h_aLm99Ge-30" target="GidRtad3aW7h_aLm99Ge-32" edge="1">
          <mxGeometry relative="1" as="geometry" />
        </mxCell>
        <mxCell id="GidRtad3aW7h_aLm99Ge-27" style="edgeStyle=none;shape=connector;rounded=0;orthogonalLoop=1;jettySize=auto;html=1;exitX=0.75;exitY=1;exitDx=0;exitDy=0;entryX=0.5;entryY=0;entryDx=0;entryDy=0;strokeColor=default;align=center;verticalAlign=middle;fontFamily=Helvetica;fontSize=11;fontColor=default;labelBackgroundColor=default;startFill=0;endArrow=none;" parent="1" source="GidRtad3aW7h_aLm99Ge-30" target="GidRtad3aW7h_aLm99Ge-73" edge="1">
          <mxGeometry relative="1" as="geometry">
            <mxPoint x="440" y="1833.5" as="sourcePoint" />
          </mxGeometry>
        </mxCell>
        <mxCell id="GidRtad3aW7h_aLm99Ge-28" value="1" style="edgeLabel;html=1;align=center;verticalAlign=middle;resizable=0;points=[];fontFamily=Helvetica;fontSize=18;fontColor=default;labelBackgroundColor=default;" parent="GidRtad3aW7h_aLm99Ge-27" vertex="1" connectable="0">
          <mxGeometry x="-0.6069" relative="1" as="geometry">
            <mxPoint as="offset" />
          </mxGeometry>
        </mxCell>
        <mxCell id="GidRtad3aW7h_aLm99Ge-29" value="n" style="edgeLabel;html=1;align=center;verticalAlign=middle;resizable=0;points=[];fontFamily=Helvetica;fontSize=18;fontColor=default;labelBackgroundColor=default;fillColor=none;gradientColor=none;" parent="GidRtad3aW7h_aLm99Ge-27" vertex="1" connectable="0">
          <mxGeometry x="0.2958" y="-4" relative="1" as="geometry">
            <mxPoint x="6" y="-1" as="offset" />
          </mxGeometry>
        </mxCell>
        <mxCell id="GidRtad3aW7h_aLm99Ge-30" value="用户" style="rounded=0;whiteSpace=wrap;html=1;fontSize=18;" parent="1" vertex="1">
          <mxGeometry x="258" y="1500" width="120" height="60" as="geometry" />
        </mxCell>
        <mxCell id="GidRtad3aW7h_aLm99Ge-31" value="联系人" style="ellipse;whiteSpace=wrap;html=1;fontSize=18;" parent="1" vertex="1">
          <mxGeometry x="205.5" y="1713.5" width="100" height="50" as="geometry" />
        </mxCell>
        <mxCell id="GidRtad3aW7h_aLm99Ge-32" value="用户ID" style="ellipse;whiteSpace=wrap;html=1;fontSize=18;" parent="1" vertex="1">
          <mxGeometry x="268" y="1792.5" width="100" height="50" as="geometry" />
        </mxCell>
        <mxCell id="GidRtad3aW7h_aLm99Ge-33" style="edgeStyle=none;shape=connector;rounded=0;orthogonalLoop=1;jettySize=auto;html=1;exitX=0.5;exitY=0;exitDx=0;exitDy=0;entryX=0.5;entryY=1;entryDx=0;entryDy=0;strokeColor=default;align=center;verticalAlign=middle;fontFamily=Helvetica;fontSize=11;fontColor=default;labelBackgroundColor=default;startFill=0;endArrow=none;" parent="1" source="GidRtad3aW7h_aLm99Ge-34" target="GidRtad3aW7h_aLm99Ge-30" edge="1">
          <mxGeometry relative="1" as="geometry" />
        </mxCell>
        <mxCell id="GidRtad3aW7h_aLm99Ge-34" value="....." style="ellipse;whiteSpace=wrap;html=1;fontSize=18;" parent="1" vertex="1">
          <mxGeometry x="330" y="1713.5" width="100" height="50" as="geometry" />
        </mxCell>
        <mxCell id="GidRtad3aW7h_aLm99Ge-35" style="edgeStyle=none;shape=connector;rounded=0;orthogonalLoop=1;jettySize=auto;html=1;exitX=0.5;exitY=1;exitDx=0;exitDy=0;entryX=0.5;entryY=0;entryDx=0;entryDy=0;strokeColor=default;align=center;verticalAlign=middle;fontFamily=Helvetica;fontSize=11;fontColor=default;labelBackgroundColor=default;startFill=0;endArrow=none;" parent="1" source="GidRtad3aW7h_aLm99Ge-36" target="GidRtad3aW7h_aLm99Ge-11" edge="1">
          <mxGeometry relative="1" as="geometry" />
        </mxCell>
        <mxCell id="GidRtad3aW7h_aLm99Ge-36" value=".....&lt;br&gt;" style="ellipse;whiteSpace=wrap;html=1;fontSize=18;" parent="1" vertex="1">
          <mxGeometry x="-150" y="1020" width="100" height="50" as="geometry" />
        </mxCell>
        <mxCell id="GidRtad3aW7h_aLm99Ge-37" style="edgeStyle=none;html=1;exitX=1;exitY=0.5;exitDx=0;exitDy=0;fontSize=18;endArrow=none;endFill=0;entryX=0.5;entryY=0;entryDx=0;entryDy=0;" parent="1" source="GidRtad3aW7h_aLm99Ge-38" target="GidRtad3aW7h_aLm99Ge-2" edge="1">
          <mxGeometry relative="1" as="geometry">
            <mxPoint x="539" y="1217.5" as="targetPoint" />
          </mxGeometry>
        </mxCell>
        <mxCell id="GidRtad3aW7h_aLm99Ge-38" value="创建时间" style="ellipse;whiteSpace=wrap;html=1;fontSize=18;" parent="1" vertex="1">
          <mxGeometry x="368" y="1372.5" width="100" height="50" as="geometry" />
        </mxCell>
        <mxCell id="GidRtad3aW7h_aLm99Ge-41" style="edgeStyle=none;shape=connector;rounded=0;orthogonalLoop=1;jettySize=auto;html=1;exitX=0.5;exitY=1;exitDx=0;exitDy=0;entryX=0.5;entryY=0;entryDx=0;entryDy=0;strokeColor=default;align=center;verticalAlign=middle;fontFamily=Helvetica;fontSize=11;fontColor=default;labelBackgroundColor=default;startFill=0;endArrow=none;" parent="1" source="GidRtad3aW7h_aLm99Ge-47" target="GidRtad3aW7h_aLm99Ge-55" edge="1">
          <mxGeometry relative="1" as="geometry" />
        </mxCell>
        <mxCell id="GidRtad3aW7h_aLm99Ge-42" value="1" style="edgeLabel;html=1;align=center;verticalAlign=middle;resizable=0;points=[];fontFamily=Helvetica;fontSize=18;fontColor=default;labelBackgroundColor=default;fillColor=none;gradientColor=none;" parent="GidRtad3aW7h_aLm99Ge-41" vertex="1" connectable="0">
          <mxGeometry x="-0.6596" y="2" relative="1" as="geometry">
            <mxPoint x="-1" as="offset" />
          </mxGeometry>
        </mxCell>
        <mxCell id="GidRtad3aW7h_aLm99Ge-43" value="1" style="edgeLabel;html=1;align=center;verticalAlign=middle;resizable=0;points=[];fontFamily=Helvetica;fontSize=18;fontColor=default;labelBackgroundColor=default;fillColor=none;gradientColor=none;" parent="GidRtad3aW7h_aLm99Ge-41" vertex="1" connectable="0">
          <mxGeometry x="0.8006" y="5" relative="1" as="geometry">
            <mxPoint as="offset" />
          </mxGeometry>
        </mxCell>
        <mxCell id="GidRtad3aW7h_aLm99Ge-44" style="edgeStyle=none;shape=connector;rounded=0;orthogonalLoop=1;jettySize=auto;html=1;exitX=1;exitY=0.5;exitDx=0;exitDy=0;entryX=0;entryY=0.5;entryDx=0;entryDy=0;strokeColor=default;align=center;verticalAlign=middle;fontFamily=Helvetica;fontSize=11;fontColor=default;labelBackgroundColor=default;startFill=0;endArrow=none;" parent="1" source="GidRtad3aW7h_aLm99Ge-47" target="GidRtad3aW7h_aLm99Ge-30" edge="1">
          <mxGeometry relative="1" as="geometry" />
        </mxCell>
        <mxCell id="GidRtad3aW7h_aLm99Ge-45" value="1" style="edgeLabel;html=1;align=center;verticalAlign=middle;resizable=0;points=[];fontFamily=Helvetica;fontSize=18;fontColor=default;labelBackgroundColor=default;fillColor=none;gradientColor=none;" parent="GidRtad3aW7h_aLm99Ge-44" vertex="1" connectable="0">
          <mxGeometry x="0.3704" relative="1" as="geometry">
            <mxPoint x="-1" as="offset" />
          </mxGeometry>
        </mxCell>
        <mxCell id="GidRtad3aW7h_aLm99Ge-46" value="1" style="edgeLabel;html=1;align=center;verticalAlign=middle;resizable=0;points=[];fontFamily=Helvetica;fontSize=18;fontColor=default;labelBackgroundColor=default;fillColor=none;gradientColor=none;" parent="GidRtad3aW7h_aLm99Ge-44" vertex="1" connectable="0">
          <mxGeometry x="-0.6711" y="-5" relative="1" as="geometry">
            <mxPoint as="offset" />
          </mxGeometry>
        </mxCell>
        <mxCell id="GidRtad3aW7h_aLm99Ge-47" value="&lt;font style=&quot;font-size: 18px;&quot;&gt;陪诊员信息&lt;/font&gt;" style="rounded=0;whiteSpace=wrap;html=1;" parent="1" vertex="1">
          <mxGeometry x="-140" y="1530" width="120" height="60" as="geometry" />
        </mxCell>
        <mxCell id="GidRtad3aW7h_aLm99Ge-48" style="edgeStyle=none;shape=connector;rounded=0;orthogonalLoop=1;jettySize=auto;html=1;exitX=0;exitY=0.5;exitDx=0;exitDy=0;entryX=1;entryY=0.5;entryDx=0;entryDy=0;strokeColor=default;align=center;verticalAlign=middle;fontFamily=Helvetica;fontSize=11;fontColor=default;labelBackgroundColor=default;startFill=0;endArrow=none;" parent="1" source="GidRtad3aW7h_aLm99Ge-54" target="GidRtad3aW7h_aLm99Ge-63" edge="1">
          <mxGeometry relative="1" as="geometry" />
        </mxCell>
        <mxCell id="GidRtad3aW7h_aLm99Ge-49" style="edgeStyle=none;shape=connector;rounded=0;orthogonalLoop=1;jettySize=auto;html=1;exitX=0;exitY=0.5;exitDx=0;exitDy=0;entryX=1;entryY=0.5;entryDx=0;entryDy=0;strokeColor=default;align=center;verticalAlign=middle;fontFamily=Helvetica;fontSize=11;fontColor=default;labelBackgroundColor=default;startFill=0;endArrow=none;" parent="1" source="GidRtad3aW7h_aLm99Ge-54" target="GidRtad3aW7h_aLm99Ge-62" edge="1">
          <mxGeometry relative="1" as="geometry" />
        </mxCell>
        <mxCell id="GidRtad3aW7h_aLm99Ge-50" style="edgeStyle=none;shape=connector;rounded=0;orthogonalLoop=1;jettySize=auto;html=1;exitX=0;exitY=0.5;exitDx=0;exitDy=0;entryX=1;entryY=0.5;entryDx=0;entryDy=0;strokeColor=default;align=center;verticalAlign=middle;fontFamily=Helvetica;fontSize=11;fontColor=default;labelBackgroundColor=default;startFill=0;endArrow=none;" parent="1" source="GidRtad3aW7h_aLm99Ge-54" target="GidRtad3aW7h_aLm99Ge-64" edge="1">
          <mxGeometry relative="1" as="geometry" />
        </mxCell>
        <mxCell id="GidRtad3aW7h_aLm99Ge-51" style="edgeStyle=none;shape=connector;rounded=0;orthogonalLoop=1;jettySize=auto;html=1;exitX=1;exitY=0.5;exitDx=0;exitDy=0;entryX=0;entryY=0.5;entryDx=0;entryDy=0;strokeColor=default;align=center;verticalAlign=middle;fontFamily=Helvetica;fontSize=11;fontColor=default;labelBackgroundColor=default;startFill=0;endArrow=none;" parent="1" source="GidRtad3aW7h_aLm99Ge-54" target="GidRtad3aW7h_aLm99Ge-11" edge="1">
          <mxGeometry relative="1" as="geometry" />
        </mxCell>
        <mxCell id="GidRtad3aW7h_aLm99Ge-52" value="1" style="edgeLabel;html=1;align=center;verticalAlign=middle;resizable=0;points=[];fontFamily=Helvetica;fontSize=18;fontColor=default;labelBackgroundColor=default;fillColor=none;gradientColor=none;" parent="GidRtad3aW7h_aLm99Ge-51" vertex="1" connectable="0">
          <mxGeometry x="0.4582" y="5" relative="1" as="geometry">
            <mxPoint as="offset" />
          </mxGeometry>
        </mxCell>
        <mxCell id="GidRtad3aW7h_aLm99Ge-53" value="1" style="edgeLabel;html=1;align=center;verticalAlign=middle;resizable=0;points=[];fontFamily=Helvetica;fontSize=18;fontColor=default;labelBackgroundColor=default;fillColor=none;gradientColor=none;" parent="GidRtad3aW7h_aLm99Ge-51" vertex="1" connectable="0">
          <mxGeometry x="-0.6502" y="3" relative="1" as="geometry">
            <mxPoint as="offset" />
          </mxGeometry>
        </mxCell>
        <mxCell id="GidRtad3aW7h_aLm99Ge-54" value="&lt;font style=&quot;font-size: 18px;&quot;&gt;就诊记录&lt;/font&gt;" style="rounded=0;whiteSpace=wrap;html=1;" parent="1" vertex="1">
          <mxGeometry x="-330" y="1209.65" width="120" height="60" as="geometry" />
        </mxCell>
        <mxCell id="GidRtad3aW7h_aLm99Ge-55" value="&lt;span style=&quot;font-size: 18px;&quot;&gt;排班信息&lt;/span&gt;" style="rounded=0;whiteSpace=wrap;html=1;" parent="1" vertex="1">
          <mxGeometry x="-390" y="1660" width="120" height="60" as="geometry" />
        </mxCell>
        <mxCell id="GidRtad3aW7h_aLm99Ge-56" style="edgeStyle=none;shape=connector;rounded=0;orthogonalLoop=1;jettySize=auto;html=1;exitX=1;exitY=0.5;exitDx=0;exitDy=0;entryX=0;entryY=0.5;entryDx=0;entryDy=0;strokeColor=default;align=center;verticalAlign=middle;fontFamily=Helvetica;fontSize=11;fontColor=default;labelBackgroundColor=default;startFill=0;endArrow=none;" parent="1" source="GidRtad3aW7h_aLm99Ge-57" target="GidRtad3aW7h_aLm99Ge-47" edge="1">
          <mxGeometry relative="1" as="geometry" />
        </mxCell>
        <mxCell id="GidRtad3aW7h_aLm99Ge-57" value="编号" style="ellipse;whiteSpace=wrap;html=1;fontSize=18;" parent="1" vertex="1">
          <mxGeometry x="-390" y="1530" width="100" height="50" as="geometry" />
        </mxCell>
        <mxCell id="GidRtad3aW7h_aLm99Ge-58" style="edgeStyle=none;shape=connector;rounded=0;orthogonalLoop=1;jettySize=auto;html=1;exitX=1;exitY=0.5;exitDx=0;exitDy=0;entryX=0;entryY=0.5;entryDx=0;entryDy=0;strokeColor=default;align=center;verticalAlign=middle;fontFamily=Helvetica;fontSize=11;fontColor=default;labelBackgroundColor=default;startFill=0;endArrow=none;" parent="1" source="GidRtad3aW7h_aLm99Ge-59" target="GidRtad3aW7h_aLm99Ge-47" edge="1">
          <mxGeometry relative="1" as="geometry" />
        </mxCell>
        <mxCell id="GidRtad3aW7h_aLm99Ge-59" value="姓名" style="ellipse;whiteSpace=wrap;html=1;fontSize=18;" parent="1" vertex="1">
          <mxGeometry x="-290" y="1570" width="100" height="50" as="geometry" />
        </mxCell>
        <mxCell id="GidRtad3aW7h_aLm99Ge-60" style="edgeStyle=none;shape=connector;rounded=0;orthogonalLoop=1;jettySize=auto;html=1;exitX=1;exitY=0.5;exitDx=0;exitDy=0;entryX=0;entryY=0.5;entryDx=0;entryDy=0;strokeColor=default;align=center;verticalAlign=middle;fontFamily=Helvetica;fontSize=11;fontColor=default;labelBackgroundColor=default;startFill=0;endArrow=none;" parent="1" source="GidRtad3aW7h_aLm99Ge-61" target="GidRtad3aW7h_aLm99Ge-47" edge="1">
          <mxGeometry relative="1" as="geometry" />
        </mxCell>
        <mxCell id="GidRtad3aW7h_aLm99Ge-61" value=".....&lt;br&gt;" style="ellipse;whiteSpace=wrap;html=1;fontSize=18;" parent="1" vertex="1">
          <mxGeometry x="-290" y="1480" width="100" height="50" as="geometry" />
        </mxCell>
        <mxCell id="GidRtad3aW7h_aLm99Ge-62" value=".....&lt;br&gt;" style="ellipse;whiteSpace=wrap;html=1;fontSize=18;" parent="1" vertex="1">
          <mxGeometry x="-470" y="1162.15" width="100" height="52.5" as="geometry" />
        </mxCell>
        <mxCell id="GidRtad3aW7h_aLm99Ge-63" value="姓名" style="ellipse;whiteSpace=wrap;html=1;fontSize=18;" parent="1" vertex="1">
          <mxGeometry x="-480" y="1264.65" width="100" height="50" as="geometry" />
        </mxCell>
        <mxCell id="GidRtad3aW7h_aLm99Ge-64" value="年龄" style="ellipse;whiteSpace=wrap;html=1;fontSize=18;" parent="1" vertex="1">
          <mxGeometry x="-570" y="1214.65" width="100" height="50" as="geometry" />
        </mxCell>
        <mxCell id="GidRtad3aW7h_aLm99Ge-65" style="edgeStyle=none;shape=connector;rounded=0;orthogonalLoop=1;jettySize=auto;html=1;exitX=1;exitY=0.5;exitDx=0;exitDy=0;entryX=0;entryY=0.5;entryDx=0;entryDy=0;strokeColor=default;align=center;verticalAlign=middle;fontFamily=Helvetica;fontSize=11;fontColor=default;labelBackgroundColor=default;startFill=0;endArrow=none;" parent="1" source="GidRtad3aW7h_aLm99Ge-66" target="GidRtad3aW7h_aLm99Ge-55" edge="1">
          <mxGeometry relative="1" as="geometry">
            <mxPoint x="-660" y="1691" as="sourcePoint" />
          </mxGeometry>
        </mxCell>
        <mxCell id="GidRtad3aW7h_aLm99Ge-66" value="性别" style="ellipse;whiteSpace=wrap;html=1;fontSize=18;" parent="1" vertex="1">
          <mxGeometry x="-560" y="1560" width="100" height="50" as="geometry" />
        </mxCell>
        <mxCell id="GidRtad3aW7h_aLm99Ge-67" style="edgeStyle=none;shape=connector;rounded=0;orthogonalLoop=1;jettySize=auto;html=1;exitX=1;exitY=0.5;exitDx=0;exitDy=0;entryX=0;entryY=0.5;entryDx=0;entryDy=0;strokeColor=default;align=center;verticalAlign=middle;fontFamily=Helvetica;fontSize=11;fontColor=default;labelBackgroundColor=default;startFill=0;endArrow=none;" parent="1" source="GidRtad3aW7h_aLm99Ge-68" target="GidRtad3aW7h_aLm99Ge-55" edge="1">
          <mxGeometry relative="1" as="geometry" />
        </mxCell>
        <mxCell id="GidRtad3aW7h_aLm99Ge-68" value="姓名" style="ellipse;whiteSpace=wrap;html=1;fontSize=18;" parent="1" vertex="1">
          <mxGeometry x="-610" y="1623.52" width="100" height="50" as="geometry" />
        </mxCell>
        <mxCell id="GidRtad3aW7h_aLm99Ge-69" style="edgeStyle=none;shape=connector;rounded=0;orthogonalLoop=1;jettySize=auto;html=1;exitX=1;exitY=0.5;exitDx=0;exitDy=0;entryX=0;entryY=0.5;entryDx=0;entryDy=0;strokeColor=default;align=center;verticalAlign=middle;fontFamily=Helvetica;fontSize=11;fontColor=default;labelBackgroundColor=default;startFill=0;endArrow=none;" parent="1" source="GidRtad3aW7h_aLm99Ge-70" target="GidRtad3aW7h_aLm99Ge-55" edge="1">
          <mxGeometry relative="1" as="geometry" />
        </mxCell>
        <mxCell id="GidRtad3aW7h_aLm99Ge-70" value=".....&lt;br&gt;" style="ellipse;whiteSpace=wrap;html=1;fontSize=18;" parent="1" vertex="1">
          <mxGeometry x="-630" y="1692.5" width="100" height="50" as="geometry" />
        </mxCell>
        <mxCell id="GidRtad3aW7h_aLm99Ge-71" style="edgeStyle=none;shape=connector;rounded=0;orthogonalLoop=1;jettySize=auto;html=1;exitX=0.5;exitY=1;exitDx=0;exitDy=0;entryX=0.5;entryY=0;entryDx=0;entryDy=0;strokeColor=default;align=center;verticalAlign=middle;fontFamily=Helvetica;fontSize=11;fontColor=default;labelBackgroundColor=default;startFill=0;endArrow=none;" parent="1" source="GidRtad3aW7h_aLm99Ge-73" target="GidRtad3aW7h_aLm99Ge-83" edge="1">
          <mxGeometry relative="1" as="geometry" />
        </mxCell>
        <mxCell id="GidRtad3aW7h_aLm99Ge-72" style="edgeStyle=none;shape=connector;rounded=0;orthogonalLoop=1;jettySize=auto;html=1;exitX=0.5;exitY=1;exitDx=0;exitDy=0;entryX=0.5;entryY=0;entryDx=0;entryDy=0;strokeColor=default;align=center;verticalAlign=middle;fontFamily=Helvetica;fontSize=11;fontColor=default;labelBackgroundColor=default;startFill=0;endArrow=none;" parent="1" source="GidRtad3aW7h_aLm99Ge-73" target="GidRtad3aW7h_aLm99Ge-82" edge="1">
          <mxGeometry relative="1" as="geometry" />
        </mxCell>
        <mxCell id="GidRtad3aW7h_aLm99Ge-73" value="&lt;font style=&quot;font-size: 18px;&quot;&gt;数据回收站表&lt;/font&gt;" style="rounded=0;whiteSpace=wrap;html=1;" parent="1" vertex="1">
          <mxGeometry x="466.5" y="1764.75" width="120" height="62.5" as="geometry" />
        </mxCell>
        <mxCell id="GidRtad3aW7h_aLm99Ge-74" style="edgeStyle=none;shape=connector;rounded=0;orthogonalLoop=1;jettySize=auto;html=1;exitX=0.5;exitY=0;exitDx=0;exitDy=0;entryX=0.25;entryY=1;entryDx=0;entryDy=0;strokeColor=default;align=center;verticalAlign=middle;fontFamily=Helvetica;fontSize=11;fontColor=default;labelBackgroundColor=default;startFill=0;endArrow=none;" parent="1" source="GidRtad3aW7h_aLm99Ge-80" target="GidRtad3aW7h_aLm99Ge-30" edge="1">
          <mxGeometry relative="1" as="geometry" />
        </mxCell>
        <mxCell id="GidRtad3aW7h_aLm99Ge-75" value="1" style="edgeLabel;html=1;align=center;verticalAlign=middle;resizable=0;points=[];fontFamily=Helvetica;fontSize=18;fontColor=default;labelBackgroundColor=default;fillColor=none;gradientColor=none;" parent="GidRtad3aW7h_aLm99Ge-74" vertex="1" connectable="0">
          <mxGeometry x="0.5918" relative="1" as="geometry">
            <mxPoint as="offset" />
          </mxGeometry>
        </mxCell>
        <mxCell id="GidRtad3aW7h_aLm99Ge-76" value="n" style="edgeLabel;html=1;align=center;verticalAlign=middle;resizable=0;points=[];fontFamily=Helvetica;fontSize=18;fontColor=default;labelBackgroundColor=default;fillColor=none;gradientColor=none;" parent="GidRtad3aW7h_aLm99Ge-74" vertex="1" connectable="0">
          <mxGeometry x="-0.5946" y="1" relative="1" as="geometry">
            <mxPoint x="6" y="-4" as="offset" />
          </mxGeometry>
        </mxCell>
        <mxCell id="GidRtad3aW7h_aLm99Ge-77" style="edgeStyle=none;shape=connector;rounded=0;orthogonalLoop=1;jettySize=auto;html=1;exitX=0.5;exitY=1;exitDx=0;exitDy=0;entryX=0.5;entryY=0;entryDx=0;entryDy=0;strokeColor=default;align=center;verticalAlign=middle;fontFamily=Helvetica;fontSize=11;fontColor=default;labelBackgroundColor=default;startFill=0;endArrow=none;" parent="1" source="GidRtad3aW7h_aLm99Ge-80" target="GidRtad3aW7h_aLm99Ge-84" edge="1">
          <mxGeometry relative="1" as="geometry">
            <mxPoint x="37.5" y="1800" as="sourcePoint" />
          </mxGeometry>
        </mxCell>
        <mxCell id="GidRtad3aW7h_aLm99Ge-78" style="edgeStyle=none;shape=connector;rounded=0;orthogonalLoop=1;jettySize=auto;html=1;exitX=0.5;exitY=1;exitDx=0;exitDy=0;entryX=0.5;entryY=0;entryDx=0;entryDy=0;strokeColor=default;align=center;verticalAlign=middle;fontFamily=Helvetica;fontSize=11;fontColor=default;labelBackgroundColor=default;startFill=0;endArrow=none;" parent="1" source="GidRtad3aW7h_aLm99Ge-80" target="GidRtad3aW7h_aLm99Ge-86" edge="1">
          <mxGeometry relative="1" as="geometry">
            <mxPoint x="37.5" y="1800" as="sourcePoint" />
          </mxGeometry>
        </mxCell>
        <mxCell id="GidRtad3aW7h_aLm99Ge-79" style="edgeStyle=none;shape=connector;rounded=0;orthogonalLoop=1;jettySize=auto;html=1;exitX=0.5;exitY=1;exitDx=0;exitDy=0;entryX=0.5;entryY=0;entryDx=0;entryDy=0;strokeColor=default;align=center;verticalAlign=middle;fontFamily=Helvetica;fontSize=11;fontColor=default;labelBackgroundColor=default;startFill=0;endArrow=none;" parent="1" source="GidRtad3aW7h_aLm99Ge-80" target="GidRtad3aW7h_aLm99Ge-85" edge="1">
          <mxGeometry relative="1" as="geometry">
            <mxPoint x="37.5" y="1800" as="sourcePoint" />
          </mxGeometry>
        </mxCell>
        <mxCell id="GidRtad3aW7h_aLm99Ge-80" value="&lt;font style=&quot;font-size: 18px;&quot;&gt;系统角色表&lt;/font&gt;" style="rounded=0;whiteSpace=wrap;html=1;" parent="1" vertex="1">
          <mxGeometry x="28.5" y="1742.5" width="120" height="60" as="geometry" />
        </mxCell>
        <mxCell id="GidRtad3aW7h_aLm99Ge-81" value="被删除的数据" style="ellipse;whiteSpace=wrap;html=1;fontSize=18;" parent="1" vertex="1">
          <mxGeometry x="514" y="1888.5" width="113.5" height="60" as="geometry" />
        </mxCell>
        <mxCell id="GidRtad3aW7h_aLm99Ge-82" value="表信息" style="ellipse;whiteSpace=wrap;html=1;fontSize=18;" parent="1" vertex="1">
          <mxGeometry x="414" y="1921" width="100" height="50" as="geometry" />
        </mxCell>
        <mxCell id="GidRtad3aW7h_aLm99Ge-83" value=".....&lt;br&gt;" style="ellipse;whiteSpace=wrap;html=1;fontSize=18;" parent="1" vertex="1">
          <mxGeometry x="364" y="1860.64" width="100" height="50" as="geometry" />
        </mxCell>
        <mxCell id="GidRtad3aW7h_aLm99Ge-84" value="名称" style="ellipse;whiteSpace=wrap;html=1;fontSize=18;" parent="1" vertex="1">
          <mxGeometry x="-59" y="1831" width="100" height="51" as="geometry" />
        </mxCell>
        <mxCell id="GidRtad3aW7h_aLm99Ge-85" value="角色标签" style="ellipse;whiteSpace=wrap;html=1;fontSize=18;" parent="1" vertex="1">
          <mxGeometry x="135" y="1824" width="100" height="50" as="geometry" />
        </mxCell>
        <mxCell id="GidRtad3aW7h_aLm99Ge-86" value=".....&lt;br&gt;" style="ellipse;whiteSpace=wrap;html=1;fontSize=18;" parent="1" vertex="1">
          <mxGeometry x="41" y="1888.5" width="100" height="50" as="geometry" />
        </mxCell>
        <mxCell id="GidRtad3aW7h_aLm99Ge-100" style="edgeStyle=none;shape=connector;rounded=0;orthogonalLoop=1;jettySize=auto;html=1;exitX=0.5;exitY=0;exitDx=0;exitDy=0;entryX=0.5;entryY=1;entryDx=0;entryDy=0;strokeColor=default;align=center;verticalAlign=middle;fontFamily=Helvetica;fontSize=11;fontColor=default;labelBackgroundColor=default;startFill=0;endArrow=none;" parent="1" source="GidRtad3aW7h_aLm99Ge-106" target="GidRtad3aW7h_aLm99Ge-165" edge="1">
          <mxGeometry relative="1" as="geometry" />
        </mxCell>
        <mxCell id="GidRtad3aW7h_aLm99Ge-101" style="edgeStyle=none;shape=connector;rounded=0;orthogonalLoop=1;jettySize=auto;html=1;exitX=0.5;exitY=0;exitDx=0;exitDy=0;entryX=0.5;entryY=1;entryDx=0;entryDy=0;strokeColor=default;align=center;verticalAlign=middle;fontFamily=Helvetica;fontSize=11;fontColor=default;labelBackgroundColor=default;startFill=0;endArrow=none;" parent="1" source="GidRtad3aW7h_aLm99Ge-106" target="GidRtad3aW7h_aLm99Ge-166" edge="1">
          <mxGeometry relative="1" as="geometry" />
        </mxCell>
        <mxCell id="GidRtad3aW7h_aLm99Ge-102" style="edgeStyle=none;shape=connector;rounded=0;orthogonalLoop=1;jettySize=auto;html=1;exitX=0.5;exitY=0;exitDx=0;exitDy=0;entryX=0.5;entryY=1;entryDx=0;entryDy=0;strokeColor=default;align=center;verticalAlign=middle;fontFamily=Helvetica;fontSize=11;fontColor=default;labelBackgroundColor=default;startFill=0;endArrow=none;" parent="1" source="GidRtad3aW7h_aLm99Ge-106" edge="1">
          <mxGeometry relative="1" as="geometry">
            <mxPoint x="718" y="1070" as="targetPoint" />
          </mxGeometry>
        </mxCell>
        <mxCell id="GidRtad3aW7h_aLm99Ge-103" style="edgeStyle=none;shape=connector;rounded=0;orthogonalLoop=1;jettySize=auto;html=1;exitX=0;exitY=0.5;exitDx=0;exitDy=0;strokeColor=default;align=center;verticalAlign=middle;fontFamily=Helvetica;fontSize=11;fontColor=default;labelBackgroundColor=default;startFill=0;endArrow=none;entryX=1;entryY=0.5;entryDx=0;entryDy=0;" parent="1" source="GidRtad3aW7h_aLm99Ge-106" target="GidRtad3aW7h_aLm99Ge-6" edge="1">
          <mxGeometry relative="1" as="geometry">
            <mxPoint x="962.0000000000005" y="1376.4" as="targetPoint" />
          </mxGeometry>
        </mxCell>
        <mxCell id="GidRtad3aW7h_aLm99Ge-104" value="1" style="edgeLabel;html=1;align=center;verticalAlign=middle;resizable=0;points=[];fontFamily=Helvetica;fontSize=18;fontColor=default;labelBackgroundColor=default;fillColor=none;gradientColor=none;" parent="GidRtad3aW7h_aLm99Ge-103" vertex="1" connectable="0">
          <mxGeometry x="0.8634" y="2" relative="1" as="geometry">
            <mxPoint x="2" y="-23" as="offset" />
          </mxGeometry>
        </mxCell>
        <mxCell id="GidRtad3aW7h_aLm99Ge-105" value="n" style="edgeLabel;html=1;align=center;verticalAlign=middle;resizable=0;points=[];fontFamily=Helvetica;fontSize=18;fontColor=default;labelBackgroundColor=default;fillColor=none;gradientColor=none;" parent="GidRtad3aW7h_aLm99Ge-103" vertex="1" connectable="0">
          <mxGeometry x="-0.6669" y="-3" relative="1" as="geometry">
            <mxPoint as="offset" />
          </mxGeometry>
        </mxCell>
        <mxCell id="GidRtad3aW7h_aLm99Ge-106" value="&lt;span style=&quot;font-size: 18px;&quot;&gt;微信用户&lt;/span&gt;" style="rounded=0;whiteSpace=wrap;html=1;" parent="1" vertex="1">
          <mxGeometry x="598" y="1115.22" width="120" height="60" as="geometry" />
        </mxCell>
        <mxCell id="GidRtad3aW7h_aLm99Ge-114" style="edgeStyle=none;shape=connector;rounded=0;orthogonalLoop=1;jettySize=auto;html=1;exitX=0.5;exitY=1;exitDx=0;exitDy=0;entryX=0.5;entryY=0;entryDx=0;entryDy=0;strokeColor=default;align=center;verticalAlign=middle;fontFamily=Helvetica;fontSize=11;fontColor=default;labelBackgroundColor=default;startFill=0;endArrow=none;" parent="1" source="GidRtad3aW7h_aLm99Ge-123" target="GidRtad3aW7h_aLm99Ge-177" edge="1">
          <mxGeometry relative="1" as="geometry" />
        </mxCell>
        <mxCell id="GidRtad3aW7h_aLm99Ge-116" style="edgeStyle=none;shape=connector;rounded=0;orthogonalLoop=1;jettySize=auto;html=1;exitX=0;exitY=0.5;exitDx=0;exitDy=0;strokeColor=default;align=center;verticalAlign=middle;fontFamily=Helvetica;fontSize=11;fontColor=default;labelBackgroundColor=default;startFill=0;endArrow=none;entryX=0.5;entryY=1;entryDx=0;entryDy=0;" parent="1" source="GidRtad3aW7h_aLm99Ge-123" target="GidRtad3aW7h_aLm99Ge-2" edge="1">
          <mxGeometry relative="1" as="geometry">
            <mxPoint x="560" y="1560" as="targetPoint" />
          </mxGeometry>
        </mxCell>
        <mxCell id="GidRtad3aW7h_aLm99Ge-117" value="1" style="edgeLabel;html=1;align=center;verticalAlign=middle;resizable=0;points=[];fontFamily=Helvetica;fontSize=18;fontColor=default;labelBackgroundColor=default;fillColor=none;gradientColor=none;" parent="GidRtad3aW7h_aLm99Ge-116" vertex="1" connectable="0">
          <mxGeometry x="0.5723" y="-3" relative="1" as="geometry">
            <mxPoint as="offset" />
          </mxGeometry>
        </mxCell>
        <mxCell id="GidRtad3aW7h_aLm99Ge-118" value="1" style="edgeLabel;html=1;align=center;verticalAlign=middle;resizable=0;points=[];fontFamily=Helvetica;fontSize=18;fontColor=default;labelBackgroundColor=default;fillColor=none;gradientColor=none;" parent="GidRtad3aW7h_aLm99Ge-116" vertex="1" connectable="0">
          <mxGeometry x="-0.4413" relative="1" as="geometry">
            <mxPoint as="offset" />
          </mxGeometry>
        </mxCell>
        <mxCell id="GidRtad3aW7h_aLm99Ge-119" style="edgeStyle=none;shape=connector;rounded=0;orthogonalLoop=1;jettySize=auto;html=1;exitX=1;exitY=0.5;exitDx=0;exitDy=0;entryX=0;entryY=0.5;entryDx=0;entryDy=0;strokeColor=default;align=center;verticalAlign=middle;fontFamily=Helvetica;fontSize=11;fontColor=default;labelBackgroundColor=default;startFill=0;endArrow=none;" parent="1" source="GidRtad3aW7h_aLm99Ge-73" target="GidRtad3aW7h_aLm99Ge-184" edge="1">
          <mxGeometry relative="1" as="geometry" />
        </mxCell>
        <mxCell id="GidRtad3aW7h_aLm99Ge-120" value="1" style="edgeLabel;html=1;align=center;verticalAlign=middle;resizable=0;points=[];fontFamily=Helvetica;fontSize=18;fontColor=default;labelBackgroundColor=default;fillColor=none;gradientColor=none;" parent="GidRtad3aW7h_aLm99Ge-119" vertex="1" connectable="0">
          <mxGeometry x="-0.5951" y="-4" relative="1" as="geometry">
            <mxPoint x="-31" y="-59" as="offset" />
          </mxGeometry>
        </mxCell>
        <mxCell id="GidRtad3aW7h_aLm99Ge-121" value="n" style="edgeLabel;html=1;align=center;verticalAlign=middle;resizable=0;points=[];fontFamily=Helvetica;fontSize=18;fontColor=default;labelBackgroundColor=default;fillColor=none;gradientColor=none;" parent="GidRtad3aW7h_aLm99Ge-119" vertex="1" connectable="0">
          <mxGeometry x="0.5243" y="-5" relative="1" as="geometry">
            <mxPoint x="-11" y="-8" as="offset" />
          </mxGeometry>
        </mxCell>
        <mxCell id="GidRtad3aW7h_aLm99Ge-122" style="edgeStyle=none;shape=connector;rounded=0;orthogonalLoop=1;jettySize=auto;html=1;exitX=0.5;exitY=1;exitDx=0;exitDy=0;entryX=0.5;entryY=0;entryDx=0;entryDy=0;strokeColor=default;align=center;verticalAlign=middle;fontFamily=Helvetica;fontSize=11;fontColor=default;labelBackgroundColor=default;startFill=0;endArrow=none;" parent="1" source="GidRtad3aW7h_aLm99Ge-123" target="GidRtad3aW7h_aLm99Ge-178" edge="1">
          <mxGeometry relative="1" as="geometry" />
        </mxCell>
        <mxCell id="_qMJoCqLzLkWr8BQyNdO-48" style="edgeStyle=none;shape=connector;rounded=0;orthogonalLoop=1;jettySize=auto;html=1;exitX=0.5;exitY=1;exitDx=0;exitDy=0;entryX=0.5;entryY=0;entryDx=0;entryDy=0;strokeColor=default;align=center;verticalAlign=middle;fontFamily=Helvetica;fontSize=11;fontColor=default;labelBackgroundColor=default;startFill=0;endArrow=none;" parent="1" source="GidRtad3aW7h_aLm99Ge-123" target="GidRtad3aW7h_aLm99Ge-179" edge="1">
          <mxGeometry relative="1" as="geometry" />
        </mxCell>
        <mxCell id="GidRtad3aW7h_aLm99Ge-123" value="&lt;font style=&quot;font-size: 18px;&quot;&gt;系统菜单表&lt;/font&gt;" style="rounded=0;whiteSpace=wrap;html=1;" parent="1" vertex="1">
          <mxGeometry x="633.23" y="1561" width="120" height="60" as="geometry" />
        </mxCell>
        <mxCell id="GidRtad3aW7h_aLm99Ge-124" style="edgeStyle=none;shape=connector;rounded=0;orthogonalLoop=1;jettySize=auto;html=1;exitX=1;exitY=0.5;exitDx=0;exitDy=0;entryX=0;entryY=0.5;entryDx=0;entryDy=0;strokeColor=default;align=center;verticalAlign=middle;fontFamily=Helvetica;fontSize=11;fontColor=default;labelBackgroundColor=default;startFill=0;endArrow=none;" parent="1" source="GidRtad3aW7h_aLm99Ge-130" target="GidRtad3aW7h_aLm99Ge-157" edge="1">
          <mxGeometry relative="1" as="geometry">
            <mxPoint x="1040.0000000000005" y="1001.4" as="targetPoint" />
          </mxGeometry>
        </mxCell>
        <mxCell id="GidRtad3aW7h_aLm99Ge-125" style="edgeStyle=none;shape=connector;rounded=0;orthogonalLoop=1;jettySize=auto;html=1;exitX=1;exitY=0.5;exitDx=0;exitDy=0;entryX=0;entryY=0.5;entryDx=0;entryDy=0;strokeColor=default;align=center;verticalAlign=middle;fontFamily=Helvetica;fontSize=11;fontColor=default;labelBackgroundColor=default;startFill=0;endArrow=none;" parent="1" source="GidRtad3aW7h_aLm99Ge-130" target="GidRtad3aW7h_aLm99Ge-158" edge="1">
          <mxGeometry relative="1" as="geometry" />
        </mxCell>
        <mxCell id="GidRtad3aW7h_aLm99Ge-126" style="edgeStyle=none;shape=connector;rounded=0;orthogonalLoop=1;jettySize=auto;html=1;exitX=1;exitY=0.5;exitDx=0;exitDy=0;entryX=0;entryY=0.5;entryDx=0;entryDy=0;strokeColor=default;align=center;verticalAlign=middle;fontFamily=Helvetica;fontSize=11;fontColor=default;labelBackgroundColor=default;startFill=0;endArrow=none;" parent="1" source="GidRtad3aW7h_aLm99Ge-130" target="GidRtad3aW7h_aLm99Ge-180" edge="1">
          <mxGeometry relative="1" as="geometry" />
        </mxCell>
        <mxCell id="GidRtad3aW7h_aLm99Ge-127" style="edgeStyle=none;shape=connector;rounded=0;orthogonalLoop=1;jettySize=auto;html=1;exitX=0;exitY=0.5;exitDx=0;exitDy=0;entryX=1;entryY=0.5;entryDx=0;entryDy=0;strokeColor=default;align=center;verticalAlign=middle;fontFamily=Helvetica;fontSize=11;fontColor=default;labelBackgroundColor=default;startFill=0;endArrow=none;" parent="1" source="GidRtad3aW7h_aLm99Ge-130" target="GidRtad3aW7h_aLm99Ge-2" edge="1">
          <mxGeometry relative="1" as="geometry" />
        </mxCell>
        <mxCell id="GidRtad3aW7h_aLm99Ge-128" value="1" style="edgeLabel;html=1;align=center;verticalAlign=middle;resizable=0;points=[];fontFamily=Helvetica;fontSize=18;fontColor=default;labelBackgroundColor=default;fillColor=none;gradientColor=none;" parent="GidRtad3aW7h_aLm99Ge-127" vertex="1" connectable="0">
          <mxGeometry x="0.5177" relative="1" as="geometry">
            <mxPoint as="offset" />
          </mxGeometry>
        </mxCell>
        <mxCell id="GidRtad3aW7h_aLm99Ge-129" value="n" style="edgeLabel;html=1;align=center;verticalAlign=middle;resizable=0;points=[];fontFamily=Helvetica;fontSize=18;fontColor=default;labelBackgroundColor=default;fillColor=none;gradientColor=none;" parent="GidRtad3aW7h_aLm99Ge-127" vertex="1" connectable="0">
          <mxGeometry x="-0.3519" y="3" relative="1" as="geometry">
            <mxPoint as="offset" />
          </mxGeometry>
        </mxCell>
        <mxCell id="_qMJoCqLzLkWr8BQyNdO-33" style="edgeStyle=none;shape=connector;rounded=0;orthogonalLoop=1;jettySize=auto;html=1;exitX=0.5;exitY=1;exitDx=0;exitDy=0;entryX=0.5;entryY=0;entryDx=0;entryDy=0;strokeColor=default;align=center;verticalAlign=middle;fontFamily=Helvetica;fontSize=11;fontColor=default;labelBackgroundColor=default;startFill=0;endArrow=none;" parent="1" source="GidRtad3aW7h_aLm99Ge-130" target="_qMJoCqLzLkWr8BQyNdO-25" edge="1">
          <mxGeometry relative="1" as="geometry" />
        </mxCell>
        <mxCell id="GidRtad3aW7h_aLm99Ge-130" value="&lt;font style=&quot;font-size: 18px;&quot;&gt;系统角色表&lt;/font&gt;" style="rounded=0;whiteSpace=wrap;html=1;" parent="1" vertex="1">
          <mxGeometry x="770" y="1261.4" width="120" height="60" as="geometry" />
        </mxCell>
        <mxCell id="GidRtad3aW7h_aLm99Ge-155" value="用户名" style="ellipse;whiteSpace=wrap;html=1;fontSize=18;" parent="1" vertex="1">
          <mxGeometry x="840" y="1938.0000000000002" width="100" height="50" as="geometry" />
        </mxCell>
        <mxCell id="GidRtad3aW7h_aLm99Ge-156" value="姓名" style="ellipse;whiteSpace=wrap;html=1;fontSize=18;" parent="1" vertex="1">
          <mxGeometry x="700" y="1930.09" width="100" height="50" as="geometry" />
        </mxCell>
        <mxCell id="GidRtad3aW7h_aLm99Ge-157" value="名称" style="ellipse;whiteSpace=wrap;html=1;fontSize=18;" parent="1" vertex="1">
          <mxGeometry x="920" y="1201.4" width="100" height="50" as="geometry" />
        </mxCell>
        <mxCell id="GidRtad3aW7h_aLm99Ge-158" value="角色标签" style="ellipse;whiteSpace=wrap;html=1;fontSize=18;" parent="1" vertex="1">
          <mxGeometry x="1040" y="1266.4" width="100" height="50" as="geometry" />
        </mxCell>
        <mxCell id="GidRtad3aW7h_aLm99Ge-164" value=".....&lt;br&gt;" style="ellipse;whiteSpace=wrap;html=1;fontSize=18;" parent="1" vertex="1">
          <mxGeometry x="700" y="1027.72" width="100" height="50" as="geometry" />
        </mxCell>
        <mxCell id="GidRtad3aW7h_aLm99Ge-165" value="性别" style="ellipse;whiteSpace=wrap;html=1;fontSize=18;" parent="1" vertex="1">
          <mxGeometry x="606" y="969.9999999999999" width="100" height="50" as="geometry" />
        </mxCell>
        <mxCell id="GidRtad3aW7h_aLm99Ge-166" value="昵称" style="ellipse;whiteSpace=wrap;html=1;fontSize=18;" parent="1" vertex="1">
          <mxGeometry x="543.5" y="1019.9999999999999" width="100" height="50" as="geometry" />
        </mxCell>
        <mxCell id="GidRtad3aW7h_aLm99Ge-174" value=".....&lt;br&gt;" style="ellipse;whiteSpace=wrap;html=1;fontSize=18;" parent="1" vertex="1">
          <mxGeometry x="980" y="1918" width="100" height="50" as="geometry" />
        </mxCell>
        <mxCell id="GidRtad3aW7h_aLm99Ge-177" value="权限" style="ellipse;whiteSpace=wrap;html=1;fontSize=18;" parent="1" vertex="1">
          <mxGeometry x="683.08" y="1720" width="100" height="50" as="geometry" />
        </mxCell>
        <mxCell id="GidRtad3aW7h_aLm99Ge-178" value="菜单名称" style="ellipse;whiteSpace=wrap;html=1;fontSize=18;" parent="1" vertex="1">
          <mxGeometry x="603.1500000000001" y="1670" width="100" height="50" as="geometry" />
        </mxCell>
        <mxCell id="GidRtad3aW7h_aLm99Ge-179" value=".....&lt;br&gt;" style="ellipse;whiteSpace=wrap;html=1;fontSize=18;" parent="1" vertex="1">
          <mxGeometry x="740" y="1673.52" width="100" height="50" as="geometry" />
        </mxCell>
        <mxCell id="GidRtad3aW7h_aLm99Ge-180" value=".....&lt;br&gt;" style="ellipse;whiteSpace=wrap;html=1;fontSize=18;" parent="1" vertex="1">
          <mxGeometry x="920" y="1301.4" width="100" height="50" as="geometry" />
        </mxCell>
        <mxCell id="GidRtad3aW7h_aLm99Ge-181" style="edgeStyle=none;shape=connector;rounded=0;orthogonalLoop=1;jettySize=auto;html=1;exitX=0.5;exitY=1;exitDx=0;exitDy=0;entryX=0.5;entryY=0;entryDx=0;entryDy=0;strokeColor=default;align=center;verticalAlign=middle;fontFamily=Helvetica;fontSize=11;fontColor=default;labelBackgroundColor=default;startFill=0;endArrow=none;" parent="1" source="GidRtad3aW7h_aLm99Ge-184" target="GidRtad3aW7h_aLm99Ge-156" edge="1">
          <mxGeometry relative="1" as="geometry" />
        </mxCell>
        <mxCell id="GidRtad3aW7h_aLm99Ge-182" style="edgeStyle=none;shape=connector;rounded=0;orthogonalLoop=1;jettySize=auto;html=1;exitX=0.5;exitY=1;exitDx=0;exitDy=0;entryX=0.5;entryY=0;entryDx=0;entryDy=0;strokeColor=default;align=center;verticalAlign=middle;fontFamily=Helvetica;fontSize=11;fontColor=default;labelBackgroundColor=default;startFill=0;endArrow=none;" parent="1" source="GidRtad3aW7h_aLm99Ge-184" target="GidRtad3aW7h_aLm99Ge-155" edge="1">
          <mxGeometry relative="1" as="geometry" />
        </mxCell>
        <mxCell id="GidRtad3aW7h_aLm99Ge-183" style="edgeStyle=none;shape=connector;rounded=0;orthogonalLoop=1;jettySize=auto;html=1;exitX=0.5;exitY=1;exitDx=0;exitDy=0;entryX=0.5;entryY=0;entryDx=0;entryDy=0;strokeColor=default;align=center;verticalAlign=middle;fontFamily=Helvetica;fontSize=11;fontColor=default;labelBackgroundColor=default;startFill=0;endArrow=none;" parent="1" source="GidRtad3aW7h_aLm99Ge-184" target="GidRtad3aW7h_aLm99Ge-174" edge="1">
          <mxGeometry relative="1" as="geometry" />
        </mxCell>
        <mxCell id="_qMJoCqLzLkWr8BQyNdO-30" style="edgeStyle=none;shape=connector;rounded=0;orthogonalLoop=1;jettySize=auto;html=1;exitX=1;exitY=0.5;exitDx=0;exitDy=0;entryX=0;entryY=0.5;entryDx=0;entryDy=0;strokeColor=default;align=center;verticalAlign=middle;fontFamily=Helvetica;fontSize=11;fontColor=default;labelBackgroundColor=default;startFill=0;endArrow=none;" parent="1" source="GidRtad3aW7h_aLm99Ge-184" target="_qMJoCqLzLkWr8BQyNdO-25" edge="1">
          <mxGeometry relative="1" as="geometry" />
        </mxCell>
        <mxCell id="GidRtad3aW7h_aLm99Ge-184" value="&lt;span style=&quot;font-size: 18px;&quot;&gt;系统用户表&lt;/span&gt;" style="rounded=0;whiteSpace=wrap;html=1;" parent="1" vertex="1">
          <mxGeometry x="790" y="1801.5" width="110" height="60" as="geometry" />
        </mxCell>
        <mxCell id="GidRtad3aW7h_aLm99Ge-185" style="edgeStyle=none;shape=connector;rounded=0;orthogonalLoop=1;jettySize=auto;html=1;exitX=0.5;exitY=1;exitDx=0;exitDy=0;entryX=0.5;entryY=0;entryDx=0;entryDy=0;strokeColor=default;align=center;verticalAlign=middle;fontFamily=Helvetica;fontSize=11;fontColor=default;labelBackgroundColor=default;startFill=0;endArrow=none;" parent="1" source="GidRtad3aW7h_aLm99Ge-73" target="GidRtad3aW7h_aLm99Ge-81" edge="1">
          <mxGeometry relative="1" as="geometry">
            <mxPoint x="621" y="1872.5" as="targetPoint" />
          </mxGeometry>
        </mxCell>
        <mxCell id="_qMJoCqLzLkWr8BQyNdO-1" style="edgeStyle=none;shape=connector;rounded=0;orthogonalLoop=1;jettySize=auto;html=1;exitX=0;exitY=0.5;exitDx=0;exitDy=0;entryX=1;entryY=0.5;entryDx=0;entryDy=0;strokeColor=default;align=center;verticalAlign=middle;fontFamily=Helvetica;fontSize=11;fontColor=default;labelBackgroundColor=default;startFill=0;endArrow=none;" parent="1" source="_qMJoCqLzLkWr8BQyNdO-5" target="_qMJoCqLzLkWr8BQyNdO-7" edge="1">
          <mxGeometry relative="1" as="geometry" />
        </mxCell>
        <mxCell id="_qMJoCqLzLkWr8BQyNdO-2" style="edgeStyle=none;shape=connector;rounded=0;orthogonalLoop=1;jettySize=auto;html=1;exitX=0;exitY=0.5;exitDx=0;exitDy=0;entryX=1;entryY=0.5;entryDx=0;entryDy=0;strokeColor=default;align=center;verticalAlign=middle;fontFamily=Helvetica;fontSize=11;fontColor=default;labelBackgroundColor=default;startFill=0;endArrow=none;" parent="1" source="_qMJoCqLzLkWr8BQyNdO-5" target="_qMJoCqLzLkWr8BQyNdO-6" edge="1">
          <mxGeometry relative="1" as="geometry" />
        </mxCell>
        <mxCell id="_qMJoCqLzLkWr8BQyNdO-3" style="edgeStyle=none;shape=connector;rounded=0;orthogonalLoop=1;jettySize=auto;html=1;exitX=0;exitY=0.5;exitDx=0;exitDy=0;entryX=1;entryY=0.5;entryDx=0;entryDy=0;strokeColor=default;align=center;verticalAlign=middle;fontFamily=Helvetica;fontSize=11;fontColor=default;labelBackgroundColor=default;startFill=0;endArrow=none;" parent="1" source="_qMJoCqLzLkWr8BQyNdO-5" target="_qMJoCqLzLkWr8BQyNdO-8" edge="1">
          <mxGeometry relative="1" as="geometry" />
        </mxCell>
        <mxCell id="_qMJoCqLzLkWr8BQyNdO-4" value="1" style="edgeLabel;html=1;align=center;verticalAlign=middle;resizable=0;points=[];fontFamily=Helvetica;fontSize=18;fontColor=default;labelBackgroundColor=default;fillColor=none;gradientColor=none;" parent="1" vertex="1" connectable="0">
          <mxGeometry x="-73" y="1350.8333333333335" as="geometry">
            <mxPoint x="95" y="70" as="offset" />
          </mxGeometry>
        </mxCell>
        <mxCell id="_qMJoCqLzLkWr8BQyNdO-10" style="rounded=0;orthogonalLoop=1;jettySize=auto;html=1;exitX=1;exitY=0.5;exitDx=0;exitDy=0;entryX=0;entryY=0.5;entryDx=0;entryDy=0;endArrow=none;startFill=0;" parent="1" source="_qMJoCqLzLkWr8BQyNdO-5" target="GidRtad3aW7h_aLm99Ge-30" edge="1">
          <mxGeometry relative="1" as="geometry" />
        </mxCell>
        <mxCell id="_qMJoCqLzLkWr8BQyNdO-5" value="&lt;font style=&quot;font-size: 18px;&quot;&gt;系统日志表&lt;/font&gt;" style="rounded=0;whiteSpace=wrap;html=1;" parent="1" vertex="1">
          <mxGeometry x="-130" y="1367.5" width="120" height="60" as="geometry" />
        </mxCell>
        <mxCell id="_qMJoCqLzLkWr8BQyNdO-6" value=".....&lt;br&gt;" style="ellipse;whiteSpace=wrap;html=1;fontSize=18;" parent="1" vertex="1">
          <mxGeometry x="-270" y="1320" width="100" height="52.5" as="geometry" />
        </mxCell>
        <mxCell id="_qMJoCqLzLkWr8BQyNdO-7" value="IP" style="ellipse;whiteSpace=wrap;html=1;fontSize=18;" parent="1" vertex="1">
          <mxGeometry x="-280" y="1422.5" width="100" height="50" as="geometry" />
        </mxCell>
        <mxCell id="_qMJoCqLzLkWr8BQyNdO-8" value="行为" style="ellipse;whiteSpace=wrap;html=1;fontSize=18;" parent="1" vertex="1">
          <mxGeometry x="-370" y="1372.5" width="100" height="50" as="geometry" />
        </mxCell>
        <mxCell id="_qMJoCqLzLkWr8BQyNdO-11" value="1" style="edgeLabel;html=1;align=center;verticalAlign=middle;resizable=0;points=[];fontFamily=Helvetica;fontSize=18;fontColor=default;labelBackgroundColor=default;fillColor=none;gradientColor=none;" parent="1" vertex="1" connectable="0">
          <mxGeometry x="40" y="1380.0033333333336" as="geometry">
            <mxPoint x="95" y="70" as="offset" />
          </mxGeometry>
        </mxCell>
        <mxCell id="_qMJoCqLzLkWr8BQyNdO-12" style="edgeStyle=none;shape=connector;rounded=0;orthogonalLoop=1;jettySize=auto;html=1;exitX=0;exitY=0.5;exitDx=0;exitDy=0;entryX=1;entryY=0.5;entryDx=0;entryDy=0;strokeColor=default;align=center;verticalAlign=middle;fontFamily=Helvetica;fontSize=11;fontColor=default;labelBackgroundColor=default;startFill=0;endArrow=none;" parent="1" source="_qMJoCqLzLkWr8BQyNdO-16" target="_qMJoCqLzLkWr8BQyNdO-18" edge="1">
          <mxGeometry relative="1" as="geometry" />
        </mxCell>
        <mxCell id="_qMJoCqLzLkWr8BQyNdO-14" style="edgeStyle=none;shape=connector;rounded=0;orthogonalLoop=1;jettySize=auto;html=1;exitX=0;exitY=0.5;exitDx=0;exitDy=0;entryX=1;entryY=0.5;entryDx=0;entryDy=0;strokeColor=default;align=center;verticalAlign=middle;fontFamily=Helvetica;fontSize=11;fontColor=default;labelBackgroundColor=default;startFill=0;endArrow=none;" parent="1" source="_qMJoCqLzLkWr8BQyNdO-16" target="_qMJoCqLzLkWr8BQyNdO-19" edge="1">
          <mxGeometry relative="1" as="geometry" />
        </mxCell>
        <mxCell id="_qMJoCqLzLkWr8BQyNdO-15" value="1" style="edgeLabel;html=1;align=center;verticalAlign=middle;resizable=0;points=[];fontFamily=Helvetica;fontSize=18;fontColor=default;labelBackgroundColor=default;fillColor=none;gradientColor=none;" parent="1" vertex="1" connectable="0">
          <mxGeometry x="-35.59534539325341" y="1698.5218734004443" as="geometry" />
        </mxCell>
        <mxCell id="_qMJoCqLzLkWr8BQyNdO-20" style="edgeStyle=none;shape=connector;rounded=0;orthogonalLoop=1;jettySize=auto;html=1;exitX=1;exitY=0.5;exitDx=0;exitDy=0;entryX=0;entryY=0.5;entryDx=0;entryDy=0;strokeColor=default;align=center;verticalAlign=middle;fontFamily=Helvetica;fontSize=11;fontColor=default;labelBackgroundColor=default;startFill=0;endArrow=none;" parent="1" source="_qMJoCqLzLkWr8BQyNdO-16" target="GidRtad3aW7h_aLm99Ge-30" edge="1">
          <mxGeometry relative="1" as="geometry" />
        </mxCell>
        <mxCell id="_qMJoCqLzLkWr8BQyNdO-45" style="edgeStyle=orthogonalEdgeStyle;shape=connector;rounded=0;orthogonalLoop=1;jettySize=auto;html=1;exitX=0.5;exitY=1;exitDx=0;exitDy=0;entryX=0;entryY=0.5;entryDx=0;entryDy=0;strokeColor=default;align=center;verticalAlign=middle;fontFamily=Helvetica;fontSize=11;fontColor=default;labelBackgroundColor=default;startFill=0;endArrow=none;" parent="1" source="_qMJoCqLzLkWr8BQyNdO-16" target="GidRtad3aW7h_aLm99Ge-184" edge="1">
          <mxGeometry relative="1" as="geometry">
            <Array as="points">
              <mxPoint x="-110" y="1990" />
              <mxPoint x="690" y="1990" />
              <mxPoint x="690" y="1832" />
              <mxPoint x="790" y="1832" />
            </Array>
          </mxGeometry>
        </mxCell>
        <mxCell id="_qMJoCqLzLkWr8BQyNdO-16" value="&lt;font style=&quot;font-size: 18px;&quot;&gt;系统用户角色表&lt;/font&gt;" style="rounded=0;whiteSpace=wrap;html=1;" parent="1" vertex="1">
          <mxGeometry x="-170" y="1741.5" width="120" height="60" as="geometry" />
        </mxCell>
        <mxCell id="_qMJoCqLzLkWr8BQyNdO-18" value="更新时间" style="ellipse;whiteSpace=wrap;html=1;fontSize=18;" parent="1" vertex="1">
          <mxGeometry x="-310" y="1810.64" width="100" height="50" as="geometry" />
        </mxCell>
        <mxCell id="_qMJoCqLzLkWr8BQyNdO-19" value="创建时间" style="ellipse;whiteSpace=wrap;html=1;fontSize=18;" parent="1" vertex="1">
          <mxGeometry x="-320" y="1741.5" width="100" height="50" as="geometry" />
        </mxCell>
        <mxCell id="_qMJoCqLzLkWr8BQyNdO-21" value="1" style="edgeLabel;html=1;align=center;verticalAlign=middle;resizable=0;points=[];fontFamily=Helvetica;fontSize=18;fontColor=default;labelBackgroundColor=default;fillColor=none;gradientColor=none;" parent="1" vertex="1" connectable="0">
          <mxGeometry x="190.00030665007574" y="1569.995938131287" as="geometry" />
        </mxCell>
        <mxCell id="_qMJoCqLzLkWr8BQyNdO-22" style="edgeStyle=none;shape=connector;rounded=0;orthogonalLoop=1;jettySize=auto;html=1;exitX=1;exitY=0.5;exitDx=0;exitDy=0;entryX=0;entryY=0.5;entryDx=0;entryDy=0;strokeColor=default;align=center;verticalAlign=middle;fontFamily=Helvetica;fontSize=11;fontColor=default;labelBackgroundColor=default;startFill=0;endArrow=none;" parent="1" source="_qMJoCqLzLkWr8BQyNdO-25" target="_qMJoCqLzLkWr8BQyNdO-29" edge="1">
          <mxGeometry relative="1" as="geometry" />
        </mxCell>
        <mxCell id="_qMJoCqLzLkWr8BQyNdO-23" style="edgeStyle=none;shape=connector;rounded=0;orthogonalLoop=1;jettySize=auto;html=1;exitX=1;exitY=0.5;exitDx=0;exitDy=0;entryX=0;entryY=0.5;entryDx=0;entryDy=0;strokeColor=default;align=center;verticalAlign=middle;fontFamily=Helvetica;fontSize=11;fontColor=default;labelBackgroundColor=default;startFill=0;endArrow=none;" parent="1" source="_qMJoCqLzLkWr8BQyNdO-25" target="_qMJoCqLzLkWr8BQyNdO-26" edge="1">
          <mxGeometry relative="1" as="geometry" />
        </mxCell>
        <mxCell id="_qMJoCqLzLkWr8BQyNdO-24" style="edgeStyle=none;shape=connector;rounded=0;orthogonalLoop=1;jettySize=auto;html=1;exitX=1;exitY=0.5;exitDx=0;exitDy=0;entryX=0;entryY=0.5;entryDx=0;entryDy=0;strokeColor=default;align=center;verticalAlign=middle;fontFamily=Helvetica;fontSize=11;fontColor=default;labelBackgroundColor=default;startFill=0;endArrow=none;" parent="1" source="_qMJoCqLzLkWr8BQyNdO-25" target="_qMJoCqLzLkWr8BQyNdO-27" edge="1">
          <mxGeometry relative="1" as="geometry" />
        </mxCell>
        <mxCell id="_qMJoCqLzLkWr8BQyNdO-25" value="&lt;font style=&quot;font-size: 18px;&quot;&gt;系统部门&lt;/font&gt;" style="rounded=0;whiteSpace=wrap;html=1;" parent="1" vertex="1">
          <mxGeometry x="920" y="1601" width="120" height="60" as="geometry" />
        </mxCell>
        <mxCell id="_qMJoCqLzLkWr8BQyNdO-26" value="上级部门ID" style="ellipse;whiteSpace=wrap;html=1;fontSize=18;" parent="1" vertex="1">
          <mxGeometry x="1141" y="1601" width="100" height="50" as="geometry" />
        </mxCell>
        <mxCell id="_qMJoCqLzLkWr8BQyNdO-27" value=".....&lt;br&gt;" style="ellipse;whiteSpace=wrap;html=1;fontSize=18;" parent="1" vertex="1">
          <mxGeometry x="1150" y="1673.52" width="100" height="50" as="geometry" />
        </mxCell>
        <mxCell id="_qMJoCqLzLkWr8BQyNdO-28" value="" style="edgeStyle=none;shape=connector;rounded=0;orthogonalLoop=1;jettySize=auto;html=1;exitX=1;exitY=0.5;exitDx=0;exitDy=0;entryX=0;entryY=0.5;entryDx=0;entryDy=0;strokeColor=default;align=center;verticalAlign=middle;fontFamily=Helvetica;fontSize=11;fontColor=default;labelBackgroundColor=default;startFill=0;endArrow=none;" parent="1" source="_qMJoCqLzLkWr8BQyNdO-25" target="_qMJoCqLzLkWr8BQyNdO-29" edge="1">
          <mxGeometry relative="1" as="geometry">
            <mxPoint x="1210" y="1545" as="sourcePoint" />
            <mxPoint x="1360" y="1375" as="targetPoint" />
          </mxGeometry>
        </mxCell>
        <mxCell id="_qMJoCqLzLkWr8BQyNdO-29" value="部门名称" style="ellipse;whiteSpace=wrap;html=1;fontSize=18;" parent="1" vertex="1">
          <mxGeometry x="1120" y="1540" width="100" height="50" as="geometry" />
        </mxCell>
        <mxCell id="_qMJoCqLzLkWr8BQyNdO-31" value="n" style="edgeLabel;html=1;align=center;verticalAlign=middle;resizable=0;points=[];fontFamily=Helvetica;fontSize=18;fontColor=default;labelBackgroundColor=default;fillColor=none;gradientColor=none;" parent="1" vertex="1" connectable="0">
          <mxGeometry x="743.1450180697393" y="1818.6365414817942" as="geometry">
            <mxPoint x="166" y="21" as="offset" />
          </mxGeometry>
        </mxCell>
        <mxCell id="_qMJoCqLzLkWr8BQyNdO-32" value="n" style="edgeLabel;html=1;align=center;verticalAlign=middle;resizable=0;points=[];fontFamily=Helvetica;fontSize=18;fontColor=default;labelBackgroundColor=default;fillColor=none;gradientColor=none;" parent="1" vertex="1" connectable="0">
          <mxGeometry x="705.9950180697393" y="1659.9965414817943" as="geometry">
            <mxPoint x="212" y="20" as="offset" />
          </mxGeometry>
        </mxCell>
        <mxCell id="_qMJoCqLzLkWr8BQyNdO-34" value="n" style="edgeLabel;html=1;align=center;verticalAlign=middle;resizable=0;points=[];fontFamily=Helvetica;fontSize=18;fontColor=default;labelBackgroundColor=default;fillColor=none;gradientColor=none;" parent="1" vertex="1" connectable="0">
          <mxGeometry x="600.0750180697394" y="1630.9965414817943" as="geometry">
            <mxPoint x="194" y="-347" as="offset" />
          </mxGeometry>
        </mxCell>
        <mxCell id="_qMJoCqLzLkWr8BQyNdO-35" value="n" style="edgeLabel;html=1;align=center;verticalAlign=middle;resizable=0;points=[];fontFamily=Helvetica;fontSize=18;fontColor=default;labelBackgroundColor=default;fillColor=none;gradientColor=none;" parent="1" vertex="1" connectable="0">
          <mxGeometry x="705.9950180697393" y="1630.9965414817943" as="geometry">
            <mxPoint x="272" y="-56" as="offset" />
          </mxGeometry>
        </mxCell>
        <mxCell id="_qMJoCqLzLkWr8BQyNdO-49" value="n" style="edgeLabel;html=1;align=center;verticalAlign=middle;resizable=0;points=[];fontFamily=Helvetica;fontSize=18;fontColor=default;labelBackgroundColor=default;fillColor=none;gradientColor=none;" parent="1" vertex="1" connectable="0">
          <mxGeometry x="579.9950180697393" y="1422.4965414817943" as="geometry">
            <mxPoint x="272" y="-56" as="offset" />
          </mxGeometry>
        </mxCell>
        <mxCell id="_qMJoCqLzLkWr8BQyNdO-50" value="n" style="edgeLabel;html=1;align=center;verticalAlign=middle;resizable=0;points=[];fontFamily=Helvetica;fontSize=18;fontColor=default;labelBackgroundColor=default;fillColor=none;gradientColor=none;" parent="1" vertex="1" connectable="0">
          <mxGeometry x="417.99501806973933" y="1910.6365414817942" as="geometry">
            <mxPoint x="272" y="-56" as="offset" />
          </mxGeometry>
        </mxCell>
      </root>
    </mxGraphModel>
  </diagram>
</mxfile>
